<svg xmlns="http://www.w3.org/2000/svg" width="1.2em" height="1.2em" viewBox="0 0 72 72">
  <path fill="#61b2e4" d="M36 6C19.431 6 6 19.43 6 36c0 13.261 8.61 24.505 20.528 28.482 1.5 .276 2.052-.651 2.052-1.445 0-.712-.027-3.073-.038-5.57-8.356 1.816-10.12-3.605-10.12-3.605-1.363-3.463-3.328-4.383-3.328-4.383-2.72-1.86 .206-1.823.206-1.823 3.008.211 4.59 3.09 4.59 3.09 2.672 4.582 7.008 3.257 8.716 2.49.273-1.936 1.047-3.257 1.904-4.006-6.674-.76-13.692-3.337-13.692-14.854 0-3.282 1.172-5.96 3.09-8.062-.31-.76-1.34-3.826.29-7.975 0 0 2.528-.81 8.28 3.08 2.398-.668 4.97-1.002 7.528-1.012 2.558.01 5.13.344 7.53 1.012 5.75-3.89 8.276-3.08 8.276-3.08 1.63 4.15.6 7.215.292 7.975 1.93 2.103 3.09 4.78 3.09 8.062 0 11.55-7.026 14.08-13.718 14.82 1.08.933 2.046 2.772 2.046 5.585 0 4.03-.036 7.276-.036 8.264 0 .8.544 1.735 2.068 1.435C57.392 60.492 66 49.255 66 36c0-16.57-13.43-30-30-30z"/>
  <path fill="none" stroke="#000" stroke-miterlimit="10" stroke-width="2" d="M36 66c-16.57 0-30-13.43-30-30S19.43 6 36 6s30 13.43 30 30-13.43 30-30 30z"/>
</svg>