<?xml version="1.0" encoding="UTF-8"?>
<svg version="1.1" viewBox="0 0 900 900" width="225" height="225" xmlns="http://www.w3.org/2000/svg">
<path transform="translate(0)" d="m0 0h900v900h-900z" fill="#FDFEFD"/>
<path transform="translate(107,189)" d="m0 0 44 6 9 1 5-1 24-1h52l16 7 16 9 12 8 12 9 13 11 8 7 10 9 17 16 13 13 14 11 11 5 4 1h10l12-3 11-8 11-10 11-9 12-11 11-9 11-10 8-7 10-9 8-7 14-11 13-6 7-2 9-1h16l31 2 52 6 46 6v1l-3 1 7 2 2 6h2v2h2v2l2 1h-2l-1 3-3-1h-3v5l1 2-12-1-1 2-6 3v1h-7l-1 3-6 1v1h-5v2l-7 1-2 2h-7l-1 3h-8l1 3-8-1-5 5-1 2-10-1-1 3-6 1h-4l-9-1-1 2-6 3-9-1-1 2h-3l-2 3h-9l-1 2v-3l-9 1-4-2 6-10 8-9 14-10 15-6 12-3h4l-3-3-10-2h-19l-15 3-18 5-13 8-11 10-9 11-13 16-9 10-8 7-8 5-14 5-5 1h-10l-1-5 4-2 9-1 12-4 11-7 9-8 9-11 10-13 12-14 12-10 14-7h3v-2l-21 6-21 11-18 12-11 8-14 11-14 12-15 15h-2l-1 4 3 1v4l-5 2-9 2-2 2v4l11 5 3 3-4 1-8-4-7-2h-6l-5 8-5 12-6 7h-3l-2-14-6-2-9 1v5l9 6 6 8 1 2v9l-3 4h-4l3 9 6 8 7 7 12 6h7l4-5 3-7v-18l-4-16-5-15 3-4 3-1h10l3 1v2h2l-1 3-13-1 1 4h2l5 17 2 10v18l-5 12-5 6v2l6 1 37-6 1-1 3-31h-3l-3 4-7-1-5-5-10-12v-8l3-1 2 4 1 4 4 1 7 8 4 4 3 1-3-6-4-7v-3l3-1 4 2 5 8 2 7 6 2 2 3 6 1v1l-8 1v3l5 2 18 7 11 9 14 12 15 13 4 3 16-2 53-11 47-12 42-13 37-13 32-13h5l3 3-3 22-6 37-7 33-10 40-12 39-11 31-12 29-8 18-9 17-6 12-11 17-4 3-5-1-31-13-27-10-28-9-30-8-38-7-28-3-15-1h-36l-44 4-24 4-27 6-33 9-24 8-24 9-18 7-13 6-9 4-4-2-11-18-12-19-11-19-14-25-13-26-12-28-9-24-6-18-8-29-5-24-3-23-2-23v-26l10 2 35 11 28 9 30 8 37 8 33 5 39 4 42 4 71 6-1-2-18-4-6-3-3-3-16-7-11-9-8-10-9-17-10-6-10-4-9 2-7 4-5-1-3-8v-10l4-13 9-14 5-5-1-6-11-12-14-7h-7l-4 1-9-3-8-3-8-4-7-3-9-1-9 3h-6l-4-4-13-2-24-1-2-1h-14l-3-2v-3l-6 1h-10l-3-3v-4l-7 2h-10l-3-3-1-4h-10l-6-2-3-3v-6l1-3-9-2-5-3-2-4v-8l-5-2-2-2-1-5 3-5 3-2 5-1-3-1v-2l-3-1-1-5z" fill="#FDFEFD"/>
<path transform="translate(107,189)" d="m0 0 44 6 9 1 5-1 24-1h52l16 7 16 9 12 8 12 9 13 11 8 7 10 9 17 16 13 13 14 11 11 5 4 1h10l12-3 11-8 11-10 11-9 12-11 11-9 11-10 8-7 10-9 8-7 14-11 13-6 7-2 9-1h16l31 2 52 6 46 6v1l-3 1 7 2 2 6h2v2h2v2l2 1h-2l-1 3-3-1h-3v5l1 2-12-1-1 2-6 3v1h-7l-1 3-6 1v1h-5v2l-7 1-2 2h-7l-1 3h-8l1 3-8-1-5 5-1 2-10-1-1 3-6 1h-4l-9-1-1 2-6 3-9-1-1 2h-3l-2 3h-9l-1 2v-3l-9 1-4-2 6-10 8-9 14-10 15-6 12-3h4l-3-3-10-2h-19l-15 3-18 5-13 8-11 10-9 11-13 16-9 10-8 7-8 5-14 5-5 1h-10l-1-5 4-2 9-1 12-4 11-7 9-8 9-11 10-13 12-14 12-10 14-7h3v-2l-21 6-21 11-18 12-11 8-14 11-14 12-15 15h-2l-1 4 3 1v4l-5 2-9 2-2 2v4l11 5 3 3-4 1-8-4-7-2h-6l-5 8-5 12-6 7h-3l-2-14-6-2-9 1v5l9 6 6 8 1 2v9l-3 4h-4l3 9 6 8 7 7 12 6h7l4-5 3-7v-18l-4-16-5-15 3-4 3-1h10l3 1v2h2l-1 3-13-1 1 4h2l5 17 2 10v18l-5 12-5 6v2l6 1 37-6 1-1 3-31h-3l-3 4-7-1-5-5-10-12v-8l3-1 2 4 1 4 4 1 7 8 4 4 3 1-3-6-4-7v-3l3-1 4 2 5 8 2 7 6 2 2 3 6 1v1l-8 1v3l5 2 18 7 11 9 14 12 15 13 4 3 16-2 53-11 47-12 42-13 37-13 32-13h5l3 3-3 22-6 37-7 33-10 40-12 39-11 31-12 29-8 18-9 17-6 12-11 17-4 3-5-1-31-13-27-10-28-9-30-8-38-7-28-3-15-1h-36l-44 4-24 4-27 6-33 9-24 8-24 9-18 7-13 6-9 4-4-2-11-18-12-19-11-19-14-25-13-26-12-28-9-24-6-18-8-29-5-24-3-23-2-23v-26l10 2 35 11 28 9 30 8 37 8 33 5 39 4 42 4 71 6-1-2-18-4-6-3-3-3-16-7-11-9-8-10-9-17-10-6-10-4-9 2-7 4-5-1-3-8v-10l4-13 9-14 5-5-1-6-11-12-14-7h-7l-4 1-9-3-8-3-8-4-7-3-9-1-9 3h-6l-4-4-13-2-24-1-2-1h-14l-3-2v-3l-6 1h-10l-3-3v-4l-7 2h-10l-3-3-1-4h-10l-6-2-3-3v-6l1-3-9-2-5-3-2-4v-8l-5-2-2-2-1-5 3-5 3-2 5-1-3-1v-2l-3-1-1-5zm654 179-10 5-26 10-31 11-43 13-42 11-41 9-28 5-4 2-2 3-3-1-35-3-86-8-80-7-48-5-32-5-34-7-31-8-35-11-34-11h-2v13l3 35 5 29 8 32 12 36 10 24 11 24 13 26 13 23 12 20 14 22 3 4 9-3 34-14 31-11 37-11 35-8 23-4 34-4h60l36 4 36 7 34 9 27 9 33 13 19 8 5 2 4-5 8-16 9-17 8-18 6-13 11-28 12-34 10-33 11-44 8-40 6-37v-3z" fill="#224589"/>
<path transform="translate(685,212)" d="m0 0h11l1 2 7-1 5-1h16l36 4h27l1 1v8l-4 5-9 5h-2l1 2 10 4 2 2v5l-4 5-5 2-6 1h-8l6 7-1 7-6 4-8 2-5 4-24 5h-8l-9-1-4 3h-19l-5 5h-8l-17-5-1 4-7 2-16-1-3 2-9 1-9-1-4 2-13 2-5 3-7 3-5 4-3 3-4 5-13 7-9 7-9 6-11 8-10 8-4 3-11 6-6 4-3 3-9 2-5 4h-9l-3-4-5-1-2-3-3-9-3-4-6-1 4 9 3 5v2l-4-1-10-10-1-2-3-1-2-4-2-2-2-1 1 8 11 13 3 3 7 1 4-4 2 1-1 22-1 9-2 2-37 6-7-2 2-4 6-10 2-6v-18l-4-17-2-6v-4h-2l-1-4h13l1-2h-2v-2h-13l-5 3 4 14 4 13 1 5v18l-5 10-3 3h-7l-12-6-11-11-5-9v-5l5-2 1-2v-9l-6-9-10-7 1-5 5-2 9 1 2 2 1 5v9l5-3 5-8 4-10 4-6 1-1 10 1 10 4 4 1v-2l-6-2-8-4 1-5 5-3 11-2-1-4-2-1 1-4 8-7 13-13 11-9 14-11 19-13 13-8 17-9 16-5h5v2l-10 4-11 7-10 9-9 11-11 14-9 11-10 9-12 7-15 4-7 1v4h10l12-3 12-6 10-8 7-7 11-14 11-13 8-9 10-8 12-6 23-6 7-1h19l12 3 1 3-19 5-14 6-14 11-8 10-3 6 7 1 3-1 3 2 2-1h7l2-3 8-2 5 1 3-2h3l1-3 9 1h4l6-1 1-2h9l2-1 2-4 3-2 7 1v-2l7-1 2-3h7l2-2h7v-2l9-3h2l1-2 6-1 4-3h3l1-3 11 1-1-1v-5l5-1 2 1 1-5-5-2-1-1v-5l-10-1z" fill="#0E3299"/>
<path transform="translate(412,332)" d="m0 0h10l3 1v2h2l-1 3-13-1 1 4h2l5 17 2 10v18l-5 12-5 6v2l6 1 37-6 1-1 3-31h-3l-3 4-7-1-5-5-10-12v-8l3-1 2 4 1 4 4 1 7 8 4 4 3 1-3-6-4-7v-3l3-1 4 2 5 8 2 7 6 2 2 3 6 1v1l-8 1v3l5 2 18 7 11 9 14 12 15 13 4 3 16-2 53-11 47-12 42-13 37-13 32-13h5l3 3-3 22-6 37-7 33-10 40-12 39-11 31-12 29-8 18-9 17-6 12-11 17-4 3-5-1-31-13-27-10-28-9-30-8-38-7-28-3-15-1h-36l-44 4-24 4-27 6-33 9-24 8-24 9-18 7-13 6-9 4-4-2-11-18-12-19-11-19-14-25-13-26-12-28-9-24-6-18-8-29-5-24-3-23-2-23v-26l10 2 35 11 28 9 30 8 37 8 33 5 39 4 42 4 71 6-1-2-18-4-6-3-3-3-16-7-11-9-8-10-9-17-8-5-1-6 5 2 7 2 6 5h3l-1-7-2-4-9-7 1-4 3 1 7 2 6 7 2 4v9l-3 4h-4l3 9 6 8 7 7 12 6h7l4-5 3-7v-18l-4-16-5-15 3-4zm349 36-10 5-26 10-31 11-43 13-42 11-41 9-28 5-4 2-2 3-3-1-35-3-86-8-80-7-48-5-32-5-34-7-31-8-35-11-34-11h-2v13l3 35 5 29 8 32 12 36 10 24 11 24 13 26 13 23 12 20 14 22 3 4 9-3 34-14 31-11 37-11 35-8 23-4 34-4h60l36 4 36 7 34 9 27 9 33 13 19 8 5 2 4-5 8-16 9-17 8-18 6-13 11-28 12-34 10-33 11-44 8-40 6-37v-3z" fill="#0E3299"/>
<path transform="translate(205,431)" d="m0 0 16 1 22 3 36 7 8 2 1 35-1 1h-17l-20-3-6 1-2 4v8l2 12 43 4 2 2v32l-3 1-37 2-2 7v13l2 13 18-2 16-2h10l2 2 2 12 1 11v14l-16 4-32 5-31 4-1-1-3-38-10-150z" fill="#224589"/>
<path transform="translate(673,431)" d="m0 0h5l-2 24-2 17-6 1-39 2-1 25 19-1h21l3 3v35h-42v12l-1 20 47 2 1 1 1 7v35l-28-1-36-4-13-2-2-1-1-30-1-53v-79l4-2 41-7z" fill="#224589"/>
<path transform="translate(545,197)" d="m0 0h16l31 2 52 6 46 6v1l-3 1 7 2 2 6h2v2h2v2l2 1h-2l-1 3-3-1h-3v5l1 2-12-1-1 2-6 3v1h-7l-1 3-6 1v1h-5v2l-7 1-2 2h-7l-1 3h-8l1 3-8-1-5 5-1 2-10-1-1 3-6 1h-4l-9-1-1 2-6 3-9-1-1 2h-3l-2 3h-9l-1 2v-3l-9 1-4-2 6-10 8-9 14-10 15-6 12-3h4l-3-3-10-2h-19l-15 3-18 5-13 8-11 10-9 11-13 16-9 10-8 7-8 5-14 5-5 1h-10l-1-5 4-2 9-1 12-4 11-7 9-8 9-11 10-13 12-14 12-10 14-7h3v-2l-21 6-21 11-18 12-11 8-14 11-14 12-15 15h-2v2h-4l2-5 2-3-2-2-5 2v-2h2l1-4 10-9 11-9 12-11 11-9 11-10 8-7 10-9 8-7 14-11 13-6 7-2z" fill="#224589"/>
<path transform="translate(328,456)" d="m0 0 13 1 18 2 3 4 16 47 11 34 11 39v5l-14 3h-15l-3-7-2-9h-11l-15 2-3 1-3 13-2 11-17 5-5 1h-7v-11l10-62 12-68 2-10z" fill="#224589"/>
<path transform="translate(446,466)" d="m0 0h12l13 2 9 4 6 5 6 11 2 7-1 5-21 7-6-1-10-8-2-1h-8l-8 5-4 9-1 5v11l3 14 4 10 6 8 5 3h6l8-6 4-5v-4l-12-1-4-3-2-7v-15l6-2 20-1h18l2 4 1 8v40l-5 5-12 7-18 6-6 1h-16l-10-3-9-5-7-6-7-11-5-11-4-16v-19l4-17 6-12 8-10 11-8 12-4z" fill="#224589"/>
<path transform="translate(536,225)" d="m0 0h5v2l-10 4-11 7-10 9-9 11-11 14-9 11-10 9-12 7-15 4-7 1v4h10l12-3 12-6 10-8 7-7 11-14 11-13 8-9 10-8 12-6 23-6 7-1h19l12 3 1 3-19 5-14 6-14 11-8 10-3 6-4 4-10 4-8 5-5 6-6 13-13 7-6 5-4 9-11 6-5 2h-15l-5-6-5-2-29-1-8-4 1-5 5-3 11-2-1-4-2-1 1-4 8-7 13-13 11-9 14-11 19-13 13-8 17-9z" fill="#FDFEFD"/>
<path transform="translate(509,456)" d="m0 0h16l14 1 1 1 2 26 1 24 1 51 13 1 25 3 4 2 1 4v34h-9l-23-3-40-8-1-1-2-34-2-53-1-32z" fill="#224589"/>
<path transform="translate(412,332)" d="m0 0h10l3 1v2h2l-1 3-13-1 1 4h2l5 17 2 10v18l-5 12-5 6v2l6 1 37-6 1-1 3-31h-3l-3 4-7-1-5-5-10-12v-8l3-1 2 4 1 4 4 1 7 8 4 4 3 1-3-6-4-7v-3l3-1 4 2 5 8 2 7 6 2 2 3 6 1v1l-8 1v3l5 2 18 7 11 9 14 12 15 13 4 3h10l-4 4h-6l2 2-9 3 1 2h-14l-106-10v-1l11-1h11v-3h-11v-1h12l-1-2-18-4-6-3-3-3-16-7-11-9-8-10-9-17-8-5-1-6 5 2 7 2 6 5h3l-1-7-2-4-9-7 1-4 3 1 7 2 6 7 2 4v9l-3 4h-4l3 9 6 8 7 7 12 6h7l4-5 3-7v-18l-4-16-5-15 3-4z" fill="#224589"/>
<path transform="translate(107,189)" d="m0 0 44 6 4 1v2l2 1-2 2-26-1-18-4v3l4 2 5 2h35l2-1 1 3-1 2-14 3-10 1h-20l-5 1 3 3 5 3 14-2 31-6 4 1-2 5-7 3-39 6h-2l1 3 10 1 2 1h8l16-7 4-3 7-1v4l-11 8-15 7-6 3-1 3 14-2 11-8 14-12 3-3 5-3h5l-1 4-15 15-14 11-3 2-1 4 12-3 8-6 10-11 12-16 9-1v2l-4 4-8 12-13 15-3 3h-2v5l9-1 5-2 2-5 8-14 5-10 4-5 4-1 1 3h2v-2l3 1-6 6-14 26-4 5-1 3 8-1 4-5 10-23 3-9h4l1 7-4 12-8 16-1 5h8l4-19 3-12 2-5 2 1 3-1 3 3h-2l-4 18-3 16 5-1 3-12 2-14h2l1-4 2 3v21l-1 6h6l1-1v-9l-1-10 1-3 5 2 2 8v15l-1 4 5-2-1-32 3 1 1-3 3 12 7 20 1 4h5l3-3h2l2 7 3 2 2-8 4 4v5l5 1 4 4 4 1-1 5-10-3-8-3-8-4-7-3-9-1-9 3h-6l-4-4-13-2-24-1-2-1h-14l-3-2v-3l-6 1h-10l-3-3v-4l-7 2h-10l-3-3-1-4h-10l-6-2-3-3v-6l1-3-9-2-5-3-2-4v-8l-5-2-2-2-1-5 3-5 3-2 5-1-3-1v-2l-3-1-1-5z" fill="#0E3299"/>
<path transform="translate(400,321)" d="m0 0 10 1 10 4 6 4 1 4-5-1h-10l-5 3 4 14 4 13 1 5v18l-5 10-3 3h-7l-12-6-11-11-5-9v-5l5-2 1-2v-9l-6-9-10-7 1-5 5-2 9 1 2 2 1 5v9l5-3 5-8 4-10 4-6z" fill="#FDFEFD"/>
<path transform="translate(416,338)" d="m0 0 12 3 4 3 1 11 11 13 3 3 7 1 4-4 2 1-1 22-1 9-2 2-37 6-7-2 2-4 6-10 2-6v-18l-4-17-3-12z" fill="#FDFEFD"/>
<path transform="translate(421,323)" d="m0 0h26l6 3 4 5 13 1v1l-12 1 6 3 7 1 8 11 11 11-1 2h-6l-8-6-7-8-3-3-4-2v-2l-5 1 2 5 6 7 8 7 5 5v2l-13 2-3-4-3-9-3-4-6-1 4 9 3 5v2l-4-1-10-10-1-2-3-1-2-4-2-2-2-1-2-4-8-3-6-1-2 2-1-4h13l1-2-2-1h2l-2-4-2-2 1-3-3-1z" fill="#224589"/>
<path transform="translate(412,332)" d="m0 0h10l3 1v2h2l-1 3-13-1 1 4h2l5 17 2 10v18l-5 12-5 6-1 4 5 1 2 3-1 1h-6l-4-2-3-3-16-7-11-9-8-10-9-17-8-5-1-6 5 2 7 2 6 5h3l-1-7-2-4-9-7 1-4 3 1 7 2 6 7 2 4v9l-3 4h-4l3 9 6 8 7 7 12 6h7l4-5 3-7v-18l-4-16-5-15 3-4z" fill="#0E3299"/>
<path transform="translate(485,232)" d="m0 0h3l1 3 3 2v2l8-1 1 3-20 13-11 8-14 11-14 12-15 15h-2v2h-4l2-5 2-3-2-2-5 2v-2h2l1-4 10-9 11-9 12-11 11-9 11-10 8-7z" fill="#0D3199"/>
<path transform="translate(542,226)" d="m0 0 3 1 1 5-9 4-13 8-11 10-9 11-13 16-9 10-8 7-8 5-14 5-5 1h-10l-1-5 4-2 9-1 12-4 11-7 9-8 9-11 10-13 12-14 12-10 14-7z" fill="#0D319A"/>
<path transform="translate(700,226)" d="m0 0 11 3 14 4 43 7 12 5v3l-7 2-11 1-17-3-24-8-19-9-2-2z" fill="#FDFEFD"/>
<path transform="translate(682,233)" d="m0 0 9 1 12 4 16 8 18 7 11 5 14 6 2 3-1 1h-8l-33-13-25-10-15-8z" fill="#FDFEFD"/>
<path transform="translate(254,232)" d="m0 0h1l3 12 7 20 1 4h5l3-3h2l2 7 3 2 2-8 4 4v5l5 1 4 4 4 1-1 5-10-3-8-3-8-4-7-3-12-3 1-3-2-1-1-7-1-25 3 1z" fill="#224589"/>
<path transform="translate(708,219)" d="m0 0h19l35 4 19 1-1 3-12 6-13-1-32-5-15-4z" fill="#FDFEFD"/>
<path transform="translate(668,240)" d="m0 0h8l12 7 18 8 37 14 3 2-1 4-5 1h-8l-13-8-32-14-19-11z" fill="#FDFEFD"/>
<path transform="translate(640,249)" d="m0 0h7l13 8 32 16 9 5v2l-6 1-13-2-12-8-11-6-18-10-3-4z" fill="#FDFEFD"/>
<path transform="translate(624,254)" d="m0 0 6 1 20 12 22 12 6 4v4l-13-4-13-5-10-7-15-10-4-4z" fill="#FDFEFD"/>
<path transform="translate(186,215)" d="m0 0h5l-4 6-10 13-11 12-8 5-10 1 1-5 14-11 10-9 11-11z" fill="#FDFEFD"/>
<path transform="translate(346,509)" d="m0 0h2l5 10 3 13v11l-3 1h-10l-2-2 1-11 2-9 1-11z" fill="#FDFEFD"/>
<path transform="translate(199,216)" d="m0 0 4 1-2 5-6 9-8 16-4 6-5 3-9 1-1-4 5-5 10-11 10-14 4-6z" fill="#FDFEFD"/>
<path transform="translate(656,245)" d="m0 0h5l22 12 14 7 23 11 1 4-6-1-10-3-10-6-23-12-14-8z" fill="#FDFEFD"/>
<path transform="translate(434,346)" d="m0 0 3 4 1 4 4 1 7 8 4 4 3 1-3-6-4-7v-3l3-1 4 2 4 6v9l-3 1-3 4-7-1-5-5-10-12v-8z" fill="#0E3299"/>
<path transform="translate(159,205)" d="m0 0 5 1-1 4-16 4-28 5-4-1-8-5 1-2 5-1h20l21-3z" fill="#FDFEFD"/>
<path transform="translate(608,261)" d="m0 0h7l9 5 25 17 1 4-8-1-10-4-13-10-10-7z" fill="#FDFEFD"/>
<path transform="translate(588,263)" d="m0 0 9 1 15 11 14 9 1 4-4 1-10-2-10-9-14-10-2-4z" fill="#FDFEFD"/>
<path transform="translate(209,222)" d="m0 0 3 1-3 11-10 22-4 4h-8l1-5 4-5 14-26z" fill="#FDFEFD"/>
<path transform="translate(538,290)" d="m0 0 6 1 24 18-1 3-6 1-7-4-10-7-9-6 1-5z" fill="#FDFEFD"/>
<path transform="translate(274,265)" d="m0 0h2l2 7 3 2 2-8 4 4v5l5 1 4 4 4 1-1 5-10-3-8-3-8-4-7-3-6-2 3-1-1-4 9 2z" fill="#0D3199"/>
<path transform="translate(156,218)" d="m0 0v3l-10 6-10 4h-8l-3-1-9-1-1-4 10-2z" fill="#FDFEFD"/>
<path transform="translate(273,236)" d="m0 0 5 1 6 8 13 28 2 4v3l-5-2-5-3-5-16-7-13-4-7z" fill="#FDFEFD"/>
<path transform="translate(546,276)" d="m0 0 5 1 14 14 8 7 2 4-4 1-9-6-15-11-4-4 2-5z" fill="#FDFEFD"/>
<path transform="translate(171,218)" d="m0 0 2 1-8 8-14 11-7 5-4 1h-10l1-4 24-12 12-9z" fill="#FDFEFD"/>
<path transform="translate(451,343)" d="m0 0 5 1 8 10 8 7 5 5v2l-13 2-3-4-3-9-8-11z" fill="#FDFEFD"/>
<path transform="translate(559,272)" d="m0 0h7l13 13 8 7v4h-6l-10-9-11-9-3-3v-2z" fill="#FDFEFD"/>
<path transform="translate(464,338)" d="m0 0h7l8 11 11 11-1 2h-6l-8-6-7-8-5-6z" fill="#FDFEFD"/>
<path transform="translate(574,267)" d="m0 0 7 2 9 8 12 8 2 2v3h-9l-8-7-14-12-1-3z" fill="#FDFEFD"/>
<path transform="translate(524,299)" d="m0 0 7 1 22 16v4l-7-1-18-11-5-5z" fill="#FDFEFD"/>
<path transform="translate(218,225)" d="m0 0 2 1-1 11-5 19-2 6-5 1-3-1v-5l8-16 5-15z" fill="#FDFEFD"/>
<path transform="translate(227,230)" d="m0 0 4 1-1 12-3 17-2 3h-5v-7l6-25z" fill="#FDFEFD"/>
<path transform="translate(505,311)" d="m0 0 5 1 7 9 9 7 7 5-2 2-6-1-4-2v-2l-5-2-13-11 1-5z" fill="#FDFEFD"/>
<path transform="translate(358,347)" d="m0 0h6l7 5 3 9-3 3-5-3-9-8-4-2 1-3z" fill="#FDFEFD"/>
<path transform="translate(496,320)" d="m0 0 4 2 9 8 10 6 4 4-5 2-6-3-11-7v-2l-4-2-2-3z" fill="#FDFEFD"/>
<path transform="translate(515,307)" d="m0 0 5 2 8 6 14 9v4h-6l-9-6-10-9-2-3z" fill="#FDFEFD"/>
<path transform="translate(110,195)" d="m0 0 19 4 18 2v3h-27l-6-3-4-4z" fill="#FDFEFD"/>
<path transform="translate(244,231)" d="m0 0 4 1 3 13 2 14v7l-2 2h-4v-19l-3-14z" fill="#FDFEFD"/>
<path transform="translate(256,232)" d="m0 0 3 1 9 27 1 6-2 1-3-3-8-24z" fill="#FDFEFD"/>
<path transform="translate(487,329)" d="m0 0 6 3 10 8 9 5 1 3-8 1-7-5v-2l-4-2-7-7z" fill="#FDFEFD"/>
<path transform="translate(236,239)" d="m0 0 3 1 3 12v9l-2 2h-6l-1-3z" fill="#FDFEFD"/>
<path transform="translate(478,335)" d="m0 0 5 2 9 9 8 6 1 4h-6l-12-11-5-7z" fill="#FDFEFD"/>
<path transform="translate(516,206)" d="m0 0h4l-1 4-6 1-2 4-7 4-3 3v4l-4 2v2h-2v2l-5 1 1-4 12-13z" fill="#0D3199"/>
<path transform="translate(438,349)" d="m0 0 6 1 8 9 4 7v2l-4-1-10-10-4-6z" fill="#FDFEFD"/>
<path transform="translate(451,351)" d="m0 0 5 2 4 6v9l-3 1-2 2-1-3h2l-3-6-4-7v-3z" fill="#0F3398"/>
<path transform="translate(414,608)" d="m0 0h58l13 1v1h-51l-22 1z" fill="#234689"/>
<path transform="translate(328,456)" d="m0 0 13 1 18 2 2 2-1 4-6-2-3-2-7-1h-13l-2-1-1 2z" fill="#113497"/>
<path transform="translate(464,344)" d="m0 0 7 6 7 8 5 3h6l1-3 3 1-1 5h-10l-3-2v-2l-5-2-11-11z" fill="#234689"/>
<path transform="translate(647,499)" d="m0 0h21l2 1-1 4h-7v-2l-10 1-5-1z" fill="#113597"/>
<path transform="translate(254,232)" d="m0 0h1l2 8-1 8-3 1-1 2-1-17 3 1z" fill="#0B2F9B"/>
<path transform="translate(272,253)" d="m0 0 3 1 6 14v3l-5-1-4-14z" fill="#FDFEFD"/>
<path transform="translate(498,221)" d="m0 0 4 2-2 4-3 1v2h-2v2l-5 1 1-4z" fill="#0C309A"/>
<path transform="translate(354,328)" d="m0 0h6v4l-4 4-4-1-1-2z" fill="#FDFEFD"/>
<path transform="translate(584,200)" d="m0 0h9l5 2-1 2-13 1v-2l-3-2z" fill="#0A2E9D"/>
<path transform="translate(533,283)" d="m0 0h3l-1 3-10 7h-3l2-4 6-5z" fill="#FDFEFD"/>
<path transform="translate(344,459)" d="m0 0h15l2 2-1 4-6-2-3-2-7-1z" fill="#0E3299"/>
<path transform="translate(621,204)" d="m0 0h15l-1 3-11 1v-2l-4-1z" fill="#0E3299"/>
<path transform="translate(666,572)" d="m0 0h10v10h-2l-2-7-5-1z" fill="#0D319A"/>
<path transform="translate(378,382)" d="m0 0 7 6 6 5 7 4-3 1-11-7-6-7z" fill="#234689"/>
<path transform="translate(245,264)" d="m0 0h2v4l4 1-5 1-4 1-2 2-2-3z" fill="#224589"/>
<path transform="translate(460,369)" d="m0 0h2v2h3v2h2v3l-4 1v-2h-2l-1 3z" fill="#0C2F9B"/>
<path transform="translate(533,431)" d="m0 0 4 1-2 6-7-3 1-2z" fill="#103497"/>
<path transform="translate(426,284)" d="m0 0m-2 1 2 1 1 3-8 5-1-2h2l1-4z" fill="#133695"/>
<path transform="translate(656,208)" d="m0 0h6l1 3-2 1h-8l-1-3z" fill="#0A2E9D"/>
<path transform="translate(545,560)" d="m0 0h12v2l-9 2-4-2z" fill="#0F3398"/>
<path transform="translate(703,218)" d="m0 0 5 1v4h-8v-3z" fill="#21448A"/>
<path transform="translate(509,211)" d="m0 0 2 1-4 5-6 4-2-1z" fill="#143894"/>
<path transform="translate(160,196)" d="m0 0h13l-4 3-1-2h-2l-1 3-5-2z" fill="#0C309A"/>
</svg>
