<?xml version="1.0" encoding="UTF-8"?>
<svg version="1.1" viewBox="0 0 900 900" width="225" height="225" xmlns="http://www.w3.org/2000/svg">
<path transform="translate(0)" d="m0 0h900v900h-900z" fill="#EFEFEE"/>
<path transform="translate(418,106)" d="m0 0h8v42l-1 2-32 7-21 7-15 9-6 5-9 12-5 12-2 12 1 14 5 13 6 10 5 5v2l4 2 7 6 16 8 11 4 12 3 22 2 1 1v44l-1 1h-28l-21-3-21-5-18-8-15-8-14-11-10-10-11-15-8-16-5-15-1-4v-26l4-17 5-12 7-11 8-10 10-10 16-12 18-10 12-5 30-9 28-5z" fill="#0A227A"/>
<path transform="translate(668,104)" d="m0 0h5l-2 45-2 1-30 3-15 3-17 6-14 10-8 9-7 10-8 18-10 32-8 24-5 11-7 12-8 10-10 9-13 8-16 7-11 3-23 3-28 1v-11l4-30 4-3 24-5 16-8 12-11 9-17 15-48 7-17 9-17 12-16 8-8 14-10 14-7 21-7 36-6z" fill="#09227A"/>
<path transform="translate(525,616)" d="m0 0h15l21 2 28 5 17 5 2 3-77 1-3 2-1 7 8 36 10 44 2 14v24l-5 12-8 9-6 2h-26l-29-6-35-10-25-8-59-19-26-8-5-1h-10l-8 3-6 4-5 8-2 4h-2v-11l6-9 10-7 9-3h19l32 5 28 7 69 18 46 9h9l4-1 1-4v-17l-9-55-4-27v-26l4-8 5-3z" fill="#D63104"/>
<path transform="translate(419,155)" d="m0 0 7 1 1 2v60l-1 55-1 5h-9l-15-2-18-6-11-6-10-9-9-10-5-10-2-7v-21l5-13 7-10 8-8 11-8 14-7 17-5z" fill="#BB160E"/>
<path transform="translate(315,610)" d="m0 0 24 2 28 4 65 11 6 2-1 2h-10l-31-3-50-6-18-1h-12l2 23 10 38 4 8 6 4 19 5 40 7 50 8 10 2 5 3 2 7-3 10h-17l-25-4-29-6-47-12-15-6-6-4-4-5-4-11-9-40-2-12v-19l5-5z" fill="#D63104"/>
<path transform="translate(591,458)" d="m0 0h19l8 4 7 7 4 9 1 6v12l-3 10-6 8-8 5-6 2h-14l-9-3-8-7-4-6-2-8v-13l3-10 5-8 7-6z" fill="#092279"/>
<path transform="translate(401,459)" d="m0 0h38l8 4 4 7 1 7-5 10-5 4-3 3 10 14 6 10v2h-13l-5-5-8-12-5-7-10-2-1 26-5 1h-7l-1-1v-44z" fill="#09227A"/>
<path transform="translate(641,459)" d="m0 0h36l8 2 5 8 1 4v7l-5 8-7 4h-2l3 5 8 10 6 10v3h-11l-3-1-13-19-3-4-10-2-1 4-1 22h-12l-1-3 1-57z" fill="#092179"/>
<path transform="translate(286,459)" d="m0 0h31l8 3 5 6 2 6v7l-3 8-7 6-8 2-17 1v22l-5 1h-8v-44l1-17z" fill="#092179"/>
<path transform="translate(173,363)" d="m0 0h11v24h23v-15l1-9h12v59l-6 2h-7v-27h-23v14l-1 13h-12v-59z" fill="#092179"/>
<path transform="translate(344,459)" d="m0 0h44v9l-19 1h-13v14h25l6 1v8l-4 1h-27l-1 17h34v10l-14 1h-33v-60z" fill="#09227A"/>
<path transform="translate(316,362)" d="m0 0h46l-1 8-1 1-31 1v13l30 1v8l-1 1-30 1 1 16 34 1-1 9-1 2h-44l-2-1v-60z" fill="#0A237B"/>
<path transform="translate(483,457)" d="m0 0 10 1 8 3 6 7 1 8h-10l-7-7-10-1-6 5 1 4 5 3 19 5 7 6 3 6v9l-4 8-6 5-6 2h-16l-10-4-5-5-2-5v-6l4-2 7 1 4 6 3 3 3 1h10l5-5v-6l-5-3-17-4-9-6-3-4v-11l3-6 7-6z" fill="#092179"/>
<path transform="translate(226,459)" d="m0 0 10 1 1 4v41l2 5 4 1h7l7-3 1-3 1-38 1-7h12l1 1v30l-2 17-5 8-6 4-3 1h-21l-6-3-5-6-2-5-1-6v-15l1-21 1-5z" fill="#0B2279"/>
<path transform="translate(251,362)" d="m0 0h26l2 1v8l-19 1h-13v14h30v7l-1 2-8 1h-22l1 17 32 1 1 2v7l-12 1h-35v-60l1-1z" fill="#09227A"/>
<path transform="translate(184,458)" d="m0 0 12 1 8 4 7 8v5l-7 1-6-2-5-5-2-1h-8l-5 3-1 3 5 5 9 3 11 3 7 6 2 4 1 9-4 9-6 5-4 2-11 1-13-2-6-4-5-7-1-6 2-2 7-1 5 3 4 6 3 2h10l5-5 1-6-8-4-17-5-8-7-1-3v-10l4-6 6-5z" fill="#09227A"/>
<path transform="translate(626,360)" d="m0 0h7l12 3 6 5 2 4v5l-1 1h-11l-5-7-9-1-5 3-1 1v5l12 6 11 3 8 7 3 6v7l-4 8-6 5-5 2-13 1-9-2-7-4-5-7-1-6 1-2h11l5 8 4 2h9l6-3 2-6-5-5-14-4-10-4-6-7-1-9 4-8 5-4z" fill="#09227A"/>
<path transform="translate(369,362)" d="m0 0h14l7 8 4 7 3-1 8-11 4-3h11l-1 5-11 15-4 6v6l7 10 9 13 2 5-1 1h-13l-6-8-7-11-3 3-9 13-4 3-5 1h-8l2-5 18-27-2-5-11-17-4-6z" fill="#09227A"/>
<path transform="translate(705,459)" d="m0 0h44v8l-12 1h-21v15h23l8 1v7l-2 1h-29v18l33 1 2 3v5l-2 1h-46v-56z" fill="#09227A"/>
<path transform="translate(546,362)" d="m0 0h12l1 3v40l3 5 6 3 8-1 5-3 1-16v-29l1-2h12v35l-1 12-4 8-7 5-9 2h-9l-10-3-6-5-3-8-1-10z" fill="#09227A"/>
<path transform="translate(749,362)" d="m0 0h45l-1 8h-32l1 15 30 1 1 1v7l-25 1-6 1v15l2 1 30 1 1 1v8l-46 1z" fill="#0A227A"/>
<path transform="translate(453,360)" d="m0 0h9l11 4 8 9v4l-7 3-5-1-5-6-5-2h-6l-7 4-3 5-1 5v15l5 10 5 3 9-1 5-3 5-8 6 1 4 2-1 6-6 8-8 5-5 1h-10l-10-3-6-5-5-9-2-6v-14l2-8 4-8 9-8z" fill="#020C59"/>
<path transform="translate(452,658)" d="m0 0 7 1 11 9 7 11-1 7-11 12-7 6-6 1-7-4-6-5-6-8-2-4v-7l4-7 10-9z" fill="#BD170E"/>
<path transform="translate(685,362)" d="m0 0h13l14 40 3 3 2-9 9-28 2-6h13l-5 16-10 27-6 16-1 1h-12l-3-3-16-46-3-8z" fill="#092179"/>
<path transform="translate(594,468)" d="m0 0h13l6 4 4 8v18l-5 9-6 4-9 1-7-3-6-8-1-3v-15l5-10z" fill="#F0F0EF"/>
<path transform="translate(401,459)" d="m0 0h38l8 4 4 7 1 7-5 10-5 4-5 1 1-3 6-5 1-2h3l1-9-1-3h-2v-2l-12-2v2l-20 1-1 17 3 1-2 10-1 23-5 1h-7l-1-1v-44z" fill="#010B57"/>
<path transform="translate(476,585)" d="m0 0 7 1 8 7 7 9-1 7-7 10-10 7-7-1-6-4-7-8-3-6 1-7 4-5 11-9z" fill="#BD170E"/>
<path transform="translate(517,459)" d="m0 0h48v8l-1 1-15 1-1 38-1 13h-12v-51h-18l-1-1v-8z" fill="#0A237B"/>
<path transform="translate(493,362)" d="m0 0h12l1 49 1 1 29 1 1 1-1 9h-43l-1-2v-41z" fill="#09227A"/>
<path transform="translate(116,363)" d="m0 0h47v8l-1 1-16 1-1 50-1 1h-11v-51l-17-1-1-1v-7z" fill="#09227A"/>
<path transform="translate(313,744)" d="m0 0h8l7 4 4 9v7l-6 9-8 4h-7l-6-4-4-6-1-3v-9l4-7 5-3z" fill="#D63104"/>
<path transform="translate(508,794)" d="m0 0h13l6 5 4 8v7l-5 7-6 4-9 1-6-3-5-6-2-6 1-8 6-8z" fill="#D73204"/>
<path transform="translate(326,386)" d="m0 0 32 1 1 1v6l-1 1-30 1 1 16 34 1-1 9-1 2h-44l-1-1v-5l7-1 2-11v-19z" fill="#020D5B"/>
<path transform="translate(173,363)" d="m0 0h11v24l-1 1v9h1v14l-1 13h-12v-59z" fill="#0A2279"/>
<path transform="translate(344,459)" d="m0 0h44v9l-19 1h-13v14h25l6 1v8l-4 1h-27l-1 6-2-4v-30l-2-2h-7z" fill="#030F5D"/>
<path transform="translate(671,361)" d="m0 0 7 1v60l-10 1-2-1v-59z" fill="#0A237B"/>
<path transform="translate(342,661)" d="m0 0h7l8 7 3 5v5l-8 9-5 3-5-1-7-5-3-5v-7l6-8z" fill="#D53004"/>
<path transform="translate(390,666)" d="m0 0h7l6 4 3 5v6l-7 9-4 3h-7l-8-7-3-5 1-5 4-6z" fill="#0A237B"/>
<path transform="translate(483,457)" d="m0 0 10 1 8 3 6 7 1 8h-10l-7-7-10-1-6 5-6-2-3-2 2-6 5-4z" fill="#020C58"/>
<path transform="translate(401,459)" d="m0 0 4 1-2 1 6 2 2 5-3 8 2 12-1 3-1 22-4 5h-2l-2 2v-44z" fill="#0A237B"/>
<path transform="translate(184,458)" d="m0 0 12 1 8 4 7 8v5l-7 1-6-2-5-5-2-1h-8l-5 3-2 3h-2v-5l-6-2 2-4 5-4z" fill="#020C59"/>
<path transform="translate(547,363)" d="m0 0h12v42l3 5 4 4-1 2h-5l-3-3-1-5-2-1-4-14-1-2-2-19z" fill="#020B57"/>
<path transform="translate(654,468)" d="m0 0h15l7 2 3 4-1 7-3 3-3 1h-18l-1-1v-15z" fill="#F0F0EF"/>
<path transform="translate(417,468)" d="m0 0 18 1 3 3 1 8-4 4-2 1h-19l-1-2v-12l1-2z" fill="#F0F0EF"/>
<path transform="translate(517,459)" d="m0 0h48v8l-18 1-1-6-2-1-1 3h-6l-2 4h-11l-7 1-1-1v-8z" fill="#020D5B"/>
<path transform="translate(301,468)" d="m0 0 12 1 6 5v7l-4 5-3 1h-14v-18z" fill="#F0F0EF"/>
<path transform="translate(429,381)" d="m0 0 5 5 2 10 1 7 6 10 4 2 5 2 3 3v2l-8 1-9-4-7-9-3-9v-14z" fill="#09227A"/>
<path transform="translate(671,378)" d="m0 0 1 2 3 1v5h2v35l-5 2h-4l-1-3h2v-39z" fill="#010954"/>
<path transform="translate(409,362)" d="m0 0h11l-1 5-11 15-4 6h-2l-1 4-2-2v-7l1-3-5 1-3-2v-2l5-1 8-11z" fill="#020C59"/>
<path transform="translate(251,362)" d="m0 0h26l2 1v8h-33l-1 4v-9h-8l-3-1v-2z" fill="#020C59"/>
<path transform="translate(354,483)" d="m0 0 33 1v8l-4 1h-27l-1 6-2-4v-11z" fill="#020C58"/>
<path transform="translate(317,363)" d="m0 0h44v7l-3 1h-30l-1 4-2-6-7 1-2-3z" fill="#010954"/>
<path transform="translate(326,386)" d="m0 0 32 1 1 1v6l-1 1-30 1v16h-1l-2-17v-8z" fill="#020C59"/>
<path transform="translate(392,400)" d="m0 0 3 1-6 11-8 10-7 2h-8l2-5 8-12 5-2 6-1z" fill="#020D5A"/>
<path transform="translate(498,363)" d="m0 0h6l1 43 2 6 1 1 16 1v1l-14 1-6 2-5-6 1-2-1-18z" fill="#010954"/>
<path transform="translate(275,386)" d="m0 0h2v7l-1 2-8 1h-18l-6 1 2-6h2v-2h-2v-2z" fill="#020D5A"/>
<path transform="translate(729,483)" d="m0 0h10l8 1v7l-2 1h-30v5h-1v-6l2-3v-4z" fill="#0A237B"/>
<path transform="translate(245,414)" d="m0 0h34l1 2v7h-23l2-1-1-2-8-3-5-1z" fill="#020C59"/>
<path transform="translate(467,670)" d="m0 0 3 2 4 6 2-1 1 6-2 4-8 4-5 1-3-4 2-3-1-11h2v-2l4-1z" fill="#D63104"/>
<path transform="translate(197,460)" d="m0 0 6 2 7 7 1 7-7 1-6-2-9-9v-4h8z" fill="#0A2076"/>
<path transform="translate(354,510)" d="m0 0h35v7l-1 2-22 1h-23l1-2h8l5-1 1-3 7 1 1 1 8 1 1-2 8 3-1-5h-26l-3-2z" fill="#020D5A"/>
<path transform="translate(182,387)" d="m0 0 23 1 2 8-23 1-2 3z" fill="#010B57"/>
<path transform="translate(287,460)" d="m0 0h34v3h-11l1 5h-14v18h-1v-20l-8-4z" fill="#010954"/>
<path transform="translate(741,459)" d="m0 0h8v8h-25l2-4-9-2v-1z" fill="#081E73"/>
<path transform="translate(583,362)" d="m0 0h11v22h-1v-9h-3l-6 8h-1l-1-19z" fill="#010954"/>
<path transform="translate(559,459)" d="m0 0h6v8l-18 1-1-6 1-2z" fill="#010A56"/>
<path transform="translate(115,364)" d="m0 0h25v1h-9v5l1 2h-16l-1-1z" fill="#020C59"/>
<path transform="translate(142,381)" d="m0 0h2v42h-7l3-3 1-37z" fill="#010954"/>
<path transform="translate(400,409)" d="m0 0 4 2 4 6 2 4h8l-4-2v-2l-3-1 1-5h4l6 10-1 2h-13l-6-8-2-3z" fill="#020C58"/>
<path transform="translate(728,362)" d="m0 0h13l-5 16-5 13-2 1v-7l4-11 2-3 1-7-6 2-3 3z" fill="#020E5C"/>
<path transform="translate(537,494)" d="m0 0h1l2 16 1 5 3 1 2-2v5l-2 1h-9l1-25z" fill="#010954"/>
<path transform="translate(501,462)" d="m0 0 5 4 2 5v5h-10v-1l5-1-2-1-1-5-5 1-4-2 1-2h4v-2l5 1z" fill="#09227A"/>
<path transform="translate(358,514)" d="m0 0 7 1 1 1 8 1 1-2 6 3v1l-15 1h-23l1-2h8l5-1z" fill="#010954"/>
<path transform="translate(360,512)" d="m0 0h22l2 2-1 4-7-1h-2-8l-8-3z" fill="#0A237B"/>
<path transform="translate(717,460)" d="m0 0h24l-4 3-1 1 3 2-1 1h-14l2-4-9-2z" fill="#010954"/>
<path transform="translate(585,474)" d="m0 0 1 4-2 5-1 18-3-4-2-5 2-12z" fill="#020E5C"/>
<path transform="translate(471,401)" d="m0 0 6 1-2 9-7 2h-4l-6 1 3-2 5-3z" fill="#092178"/>
<path transform="translate(671,361)" d="m0 0 7 1-1 15-3-2-1-5-3-1-2-3 1-4z" fill="#010B57"/>
<path transform="translate(651,491)" d="m0 0 2 1-1 28h-10l2-2h4l1-4v-21z" fill="#030F5D"/>
<path transform="translate(460,364)" d="m0 0 1 2 5 1 4 3-1 3-4 1-6-3-6-1 3-1 2-4z" fill="#092179"/>
<path transform="translate(264,461)" d="m0 0h7l1 1v31h-1l-1-19-2-1-1-10z" fill="#010954"/>
<path transform="translate(716,484)" d="m0 0h13l-1 3-6 1 3 2-9 2-1 5h-1v-6l2-3z" fill="#010954"/>
<path transform="translate(400,409)" d="m0 0 4 2 4 6 3 4 9 1 1-3 1 3-1 1h-13l-6-8-2-3z" fill="#041363"/>
<path transform="translate(728,362)" d="m0 0h13l-3 11-2-3v-6l-6 2-3 3z" fill="#071360"/>
<path transform="translate(505,491)" d="m0 0h2l3 6v9l-2 5h-2l1-9-2-3z" fill="#03105F"/>
<path transform="translate(409,282)" d="m0 0 1 2h10l4 3v12l-2-2-2-9-5-2-13-2v-1z" fill="#040952"/>
<path transform="translate(449,478)" d="m0 0h2l-2 6-5 6-7 2 1-3 6-5 1-2h3z" fill="#020E5C"/>
<path transform="translate(493,468)" d="m0 0h7v2l2 1-1 2 6 1v1h-10l-4-4z" fill="#010B57"/>
<path transform="translate(620,368)" d="m0 0h7v2l-5 3-3 6-3-4-1-3h2l1-3z" fill="#0A0D54"/>
<path transform="translate(354,510)" d="m0 0 28 1v1l-8 1h-18l-3-2z" fill="#020C58"/>
<path transform="translate(748,512)" d="m0 0h2l1 7h-27v-1l18-1 6-2z" fill="#020C59"/>
<path transform="translate(342,661)" d="m0 0h7l7 6-1 2-5-4h-9l-4 2 2-4z" fill="#C5200A"/>
<path transform="translate(295,506)" d="m0 0h1v14h-11v-2l9-2z" fill="#010954"/>
<path transform="translate(447,283)" d="m0 0h11l-3 2-5 2h-11v-2z" fill="#03105E"/>
<path transform="translate(229,459)" d="m0 0 7 1 1 4-1 1-1 10h-1v-12l-7-1v-2z" fill="#020D5A"/>
<path transform="translate(649,368)" d="m0 0h2l2 4v5l-1 1h-8l1-2 3-2z" fill="#020D5B"/>
<path transform="translate(491,756)" d="m0 0h8l10 2 1 2h-8l-9-2z" fill="#C31D0B"/>
<path transform="translate(410,283)" d="m0 0h14l1 1v14h-1l-1-11-3-2-10-1z" fill="#1B2471"/>
<path transform="translate(734,484)" d="m0 0h13v7h-3v-5l-10-1z" fill="#030F5D"/>
<path transform="translate(609,403)" d="m0 0h8l1 5-8-2-3-2z" fill="#020C59"/>
<path transform="translate(334,671)" d="m0 0h1l1 11-3-1-1-2v-7z" fill="#C51F0B"/>
</svg>
