<?xml version="1.0" encoding="UTF-8"?>
<svg version="1.1" viewBox="0 0 2048 2048" width="600" height="600" xmlns="http://www.w3.org/2000/svg">
<path transform="translate(0)" d="m0 0h2048v2048h-2048z" fill="#FEFEFC"/>
<path transform="translate(1019,511)" d="m0 0h2v565l-1 1h-30l-22-1v-447l-11 9-12 11-8 7-8 8-8 7-14 12-9 9-8 7-12 11-8 7-10 9-8 8-6 5-1 97-5-2-15-14-8-7-13-12-8-7-1-1v-82l15-14 11-9 17-16 11-9 15-14 10-9 8-7 10-9 8-7 11-10 11-9 9-9 11-9 16-15 10-9 11-9 17-16 11-9z" fill="#0A205E"/>
<path transform="translate(1130,684)" d="m0 0 4 2 17 16 15 14 11 9 11 11 8 7 12 11 11 9 14 14 11 9 17 16 13 12 14 12 17 16 11 10 11 9 12 12 8 7 7 6 1 190h-50l-1-167-14-14-8-7-7-7-8-7-16-15-8-7-11-11-8-7-14-13-8-7-15-14-6-5v229h91l1 5v47l-7 1h-130l-6-1z" fill="#919292"/>
<path transform="translate(1524,1117)" d="m0 0h14l13 2 15 5 14 8 11 10 9 13 7 15 4 17v30l-4 17-6 14-8 11-7 8-14 10-14 6-18 4h-17l-16-3-15-6-13-9-11-11-8-13-5-12-4-17v-27l3-15 6-15 7-11 9-10 8-7 12-7 14-5z" fill="#0A215E"/>
<path transform="translate(1317,1120)" d="m0 0h61l16 2 12 4 11 7 7 8 5 10 2 8v22l-4 13-8 11-10 8-4 3 13 25 12 22 10 18v3h-32l-6-9-17-33-10-18h-28l-1 59-1 1h-29l-1-1v-162z" fill="#0C225F"/>
<path transform="translate(618,1124)" d="m0 0h30l8 11 21 32 29 44 8 12 5 7 2 1v-107h30l1 142v27l-2 1h-18l-7-2-72-108-3-4-1 11-1 102-3 1h-26l-1-1z" fill="#919292"/>
<path transform="translate(252,1124)" d="m0 0h30l8 11 14 22 18 27 29 44 4 4-1-25 1-83h29l1 1v168l-1 1h-19l-6-2-20-30-29-44-16-23-10-15-1 29v84l-2 1h-29z" fill="#919292"/>
<path transform="translate(1807,1120)" d="m0 0h60l15 2 12 4 10 6 8 9 5 11 3 13v16l-3 15-5 10-9 10-10 6-13 4-23 2h-22l-1 55-2 1h-28l-1-2v-161z" fill="#0C225F"/>
<path transform="translate(1130,514)" d="m0 0 4 2 13 12 8 7 12 11 11 9 11 11 8 7 13 11 16 15 14 12 12 11 10 9 11 9 8 8 8 7 10 9 8 7 10 9 15 13 12 11 11 10v57l-4-2-8-8-8-7-14-13-8-7-13-12-30-27-13-12-10-9-8-7-15-14-15-13-17-16-11-10-8-7-10-9-13-12-14-12-6-5z" fill="#909191"/>
<path transform="translate(1227,1117)" d="m0 0h19l18 3 15 5 3 4-3 26-9-2-15-4-5-1h-27l-12 4-10 6-9 12-5 14-1 4v27l5 16 5 9 6 7 10 6 10 3h26l7-1 1-1v-27h-21l-1-1v-24l4-1h48l1 1v72l-4 3-17 6-20 4h-22l-20-4-12-5-11-7-10-9-6-8-8-15-5-19-1-7v-19l2-14 5-15 7-13 8-10 10-9 14-8 13-5z" fill="#0C225F"/>
<path transform="translate(1130,600)" d="m0 0 7 6 11 9 12 11 15 14 20 18 8 7 15 14 8 7 10 9 7 7 11 9 17 16 12 11 11 10 8 7 24 22 11 9 12 12 5 4 1 2v51l-4-2-15-14-13-12-11-10-8-7-12-11-13-12-20-18-13-12-14-12-7-7-8-7-13-12-8-7-10-9-13-12-10-9-8-7-12-11-13-12z" fill="#909191"/>
<path transform="translate(997,1124)" d="m0 0h104v28l-1 2h-76v36h59l1 3v12l-1 15-59 1v16l1 26 78 1v29l-2 1h-108l-1-169z" fill="#919292"/>
<path transform="translate(1659,1120)" d="m0 0h5l1 1 1 22 1 77 3 16 5 10 1 3 12 6 13 2 13-1 10-4 8-7 5-12 2-14 1-88 1-10 28-1 2 2v98l-2 15-4 14-7 13-9 10-8 6-10 5-18 4h-19l-16-3-12-5-11-8-8-10-7-14-4-16-1-8v-102z" fill="#0C225F"/>
<path transform="translate(422,1125)" d="m0 0h104v28l-1 1h-72v36h56l1 1v18l-1 11-55 1-1 72-3 1h-27l-1-2z" fill="#919292"/>
<path transform="translate(1521,1147)" d="m0 0h20l13 4 9 6 8 9 5 11 3 11 1 8v11l-2 14-5 13-6 9-9 8-12 5-4 1h-22l-12-4-9-6-7-8-5-10-4-15v-25l3-12 6-12 8-9 10-6z" fill="#FFFFFD"/>
<path transform="translate(795,887)" d="m0 0 4 2 14 14 8 7 13 12 8 7 3 3v144l-1 1-49-1z" fill="#09205E"/>
<path transform="translate(843,1124)" d="m0 0h125l1 1v28l-1 1h-47v139l-4 1h-26l-1-139-47-1z" fill="#919292"/>
<path transform="translate(1071,364)" d="m0 0h9l14 2 13 4 4 3-2 21-9-2-13-3h-22l-11 4-8 6-7 11-3 11v19l4 14 6 9 7 6 11 4h27v-22h-16l-1-1v-19l41-1 1 28v29l-8 5-19 5-8 1h-15l-16-3-16-8-11-10-7-11-5-13-2-9v-25l4-15 6-12 9-10 8-7 14-7 12-3z" fill="#0C225F"/>
<path transform="translate(1257,458)" d="m0 0h26l15 4 7 3-2 22-11-3-15-3h-10l-12 2-10 6-8 9-5 12-1 5v20l4 13 6 10 7 6 10 4 5 1h15l15-3 10-3 2 21-3 3-17 5-6 1h-19l-16-4-15-8-10-9-7-11-5-12-3-12v-23l4-15 7-14 7-9 10-8 14-7z" fill="#919292"/>
<path transform="translate(790,1124)" d="m0 0h29l1 1v168l-2 1h-28l-1-1v-168z" fill="#919292"/>
<path transform="translate(550,1124)" d="m0 0h29l1 1v168l-2 1h-26l-2-1z" fill="#919292"/>
<path transform="translate(859,468)" d="m0 0h26v143h-26z" fill="#919292"/>
<path transform="translate(208,1172)" d="m0 0h13v121h-29v-120z" fill="#919292"/>
<path transform="translate(1834,1146)" d="m0 0h31l9 2 8 5 4 5 3 9v12l-3 10-4 6-7 4-6 2-9 1h-25l-1-1z" fill="#FFFFFD"/>
<path transform="translate(1346,1146)" d="m0 0h30l12 3 8 7 3 7 1 10-2 10-4 6-6 5-9 3-8 1h-25z" fill="#FFFFFD"/>
<path transform="translate(795,824)" d="m0 0 4 2 13 12 8 7 7 7 8 7 10 9v33l-8-6-12-11-8-7-16-15-6-6z" fill="#0E2360"/>
<path transform="translate(199,1124)" d="m0 0h22v29l-1 1h-28v-29z" fill="#919292"/>
<path transform="translate(524,1356)" d="m0 0h14l4 3 1 3v9l3 5v7l-4 5-2 1h-16l-1-1v-31z" fill="#1D3065"/>
<path transform="translate(878,1354)" d="m0 0 5 1v31l-1 2-3 1h-13l-4-4-1-3v-10l4-5 4-2 9 1z" fill="#263869"/>
<path transform="translate(1383,1353)" d="m0 0 3 2v32l-3 2-10 1-6-3-3-6v-8l2-4 8-4 8 1-1-11z" fill="#243668"/>
<path transform="translate(732,1365)" d="m0 0h7l5 3 3 5v9l-3 5-6 3-8-1-5-5-1-3v-8l6-7z" fill="#283A6A"/>
<path transform="translate(1242,1360)" d="m0 0 9 1 4 5 1 2v10l-5 6-2 1h-8l-6-5-1-3v-9l4-6z" fill="#FFFFFD"/>
<path transform="translate(1242,1355)" d="m0 0 10 1 7 6 2 4 1 7-2 8-5 6-8 3-9-1-6-5-3-6v-11l3-6 5-4zm0 5-6 4-2 4v9l3 5 4 3h8l6-5 1-2v-10l-4-6-4-2z" fill="#233568"/>
<path transform="translate(1117,1365)" d="m0 0h6l5 3 2 4v5l-1 1-14 1 1 4 4 2 9-1v3l-2 2-7 1-6-2-5-6v-9l6-7z" fill="#223467"/>
<path transform="translate(600,1365)" d="m0 0h6l6 5 1 7-1 1-8 1-7-1 2 5 1 1 12 1-2 4h-12l-5-5-1-2v-9l4-6z" fill="#31416D"/>
<path transform="translate(1562,1365)" d="m0 0 6 1 3 5 2 14 1 4h-18l-3-3 1-7 3-3 9-1v-5h-6l-4 1 1-4z" fill="#33436E"/>
<path transform="translate(1043,1353)" d="m0 0 4 2v11l7-1 6 3 2 3 1 17-5 1-1-18h-9l-1 17-5 1-1-3 1-32z" fill="#243668"/>
<path transform="translate(1491,1366)" d="m0 0h12l3 2 2 6v14l-5 1-1-16-1-2h-8l-1 1-1 17-5-1v-21z" fill="#2C3D6B"/>
<path transform="translate(658,1365)" d="m0 0h3l4 6 4 9 4-9 4-6h2l-1 9-8 19-4 8h-4l1-5 2-5v-6l-7-17z" fill="#263869"/>
<path transform="translate(1676,1365)" d="m0 0 5 2 7 14 5-14 3-2 1 1-1 8-10 24-3 3h-3l1-5 2-6-1-7-6-14z" fill="#293A6A"/>
<path transform="translate(797,1366)" d="m0 0h13l4 4 1 4v14l-5 1-1-17-1-1h-8l-1 1-1 17-5-1v-20z" fill="#2A3B6A"/>
<path transform="translate(298,1365)" d="m0 0h2l1 2v20l-2 2h-14l-3-4-1-4v-14l5-1 1 15 1 3 8 1v-18z" fill="#2D3E6C"/>
<path transform="translate(356,1365)" d="m0 0 6 1 1 3-3 2-6-1v3l10 6 1 6-4 4-7 1-6-2v-3l11-1-1-3-9-5-1-5 4-5z" fill="#293A6A"/>
<path transform="translate(414,1359)" d="m0 0h2l2 5 5 2 1 3-6 1 1 14 5 3v2l-4 1-6-2-1-3v-16h-3l1-4 2-2z" fill="#31416D"/>
<path transform="translate(230,1355)" d="m0 0h3l1 3-1 36-4 3h-5l1-4 2-1 1-7 1-29z" fill="#192D64"/>
<path transform="translate(734,1369)" d="m0 0 6 2 2 2 1 6-2 5-6 2-5-3-1-2v-7z" fill="#FFFFFD"/>
<path transform="translate(987,1359)" d="m0 0h2l2 5 5 2v3l-6 1 1 13 1 2 4 1v3h-8l-2-3v-17l-4-1 1-3h3z" fill="#2C3D6B"/>
<path transform="translate(869,1370)" d="m0 0h6l3 3 1 7-3 5h-7l-3-3-1-6 2-5z" fill="#FFFFFD"/>
<path transform="translate(1373,1370)" d="m0 0 7 1 2 3-1 9-2 2h-7l-3-4v-8z" fill="#FFFFFD"/>
<path transform="translate(1308,1366)" d="m0 0 5 1 8-1-1 4-6 3-1 15-5 1z" fill="#31416D"/>
<path transform="translate(531,1374)" d="m0 0h7l3 2v7l-4 2h-8l-1-1v-9z" fill="#FFFFFD"/>
<path transform="translate(1622,1366)" d="m0 0 5 1 6-1-1 5h-6l-1 18-5-1 1-21z" fill="#243668"/>
<path transform="translate(1557,1376)" d="m0 0h9l-4 3-3 2-1 4h8l-2 4h-8l-3-3 1-7z" fill="#253769"/>
<path transform="translate(1434,1366)" d="m0 0h4v23l-5-1z" fill="#32426E"/>
<path transform="translate(530,1360)" d="m0 0 7 1 1 1v7l-8 1-2-1v-8z" fill="#FFFFFD"/>
<path transform="translate(1562,1378)" d="m0 0 5 1v5l-1 1h-8l1-5z" fill="#FFFFFD"/>
<path transform="translate(602,1369)" d="m0 0 4 1 2 2v3l-11 1 1-4z" fill="#FFFFFD"/>
<path transform="translate(1118,1369)" d="m0 0 5 1 2 2v3h-10l1-4z" fill="#FFFFFD"/>
<path transform="translate(1114,1373)" d="m0 0 1 2h10l1-2v5l-11 1-2 2z" fill="#8A8C8F"/>
</svg>
