<?xml version="1.0" encoding="UTF-8"?>
<svg version="1.1" viewBox="0 0 900 896" width="225" height="224" xmlns="http://www.w3.org/2000/svg">
<path transform="translate(0)" d="m0 0h900v896h-900z" fill="#DC2822"/>
<path transform="translate(420,86)" d="m0 0h57l17 2 24 4 21 5 26 8 28 11 19 10 8 4 18 11 12 8 12 9 16 13 12 11 9 8 7 8 7 7 8 10 11 14 12 17 12 20 12 23 10 23 11 33 7 30 5 34 1 13v41l-2 24-5 30-6 25-7 22-8 21-10 22-13 23-13 20-9 12-11 14-13 14-2 3h-2l-2 4-8 8-8 7-14 12-20 15-17 11-21 12-25 12-27 10-28 8-25 5-31 4-31 1-32-2-33-5-25-6-20-6-21-8-20-9-21-11-13-8-20-14-14-11-21-18-6-7-6-5-7-8-11-13-13-17-16-24-10-18-11-22-10-25-5-15-6-22-5-26-3-21-1-11v-52l3-26 4-23 7-28 8-24 10-24 8-17 14-24 10-15 12-16 9-11 11-12 9-10 15-14 8-7 14-11 17-12 21-13 27-14 27-11 21-7 25-6 15-3 20-3z" fill="#DC2822"/>
<path transform="translate(503,212)" d="m0 0 12 1 23 5 28 9 25 10 24 12 20 12 18 13 10 8 10 9 8 7 12 12 9 11 8 9 14 21 13 23 10 24 8 24 5 25 2 13 1 13v26l-2 20-4 23-7 24-9 24-13 25-16 24-13 16-11 12-17 17-11 9-17 13-17 11-23 13-27 12-27 9-22 5-6 1h-11l-11-3-10-6-7-10-4-11-3-24-1-18-1-34v-149l1-87 2-51 1-64 1-40 1-19 5-13 11-12z" fill="#FCFCFC"/>
<path transform="translate(390,214)" d="m0 0h14l8 6 6 12 2 13-1 45v432l-4 13-5 9-7 7-10 4-5 1h-17l-14-2-26-8-25-10-21-10-19-11-12-8-12-9-16-13-13-12-10-10-9-11-13-16-7-11-8-13-10-19-8-20-6-18-5-21-3-17-1-11v-39l2-18 5-24 5-17 9-24 11-22 8-13 8-12 10-13 9-10 7-8 18-18 10-8 17-13 17-11 25-14 17-8 21-8 25-8 25-3z" fill="#FCFBFB"/>
<path transform="translate(426,44)" d="m0 0h51l28 3 28 5 28 7 26 9 24 10 19 9 23 13 27 18 14 11 13 11 10 9 8 7 13 13 9 11 12 14 14 19 11 17 9 15 14 27 8 19 9 24 8 28 6 27 4 29 1 11v64l-4 33-6 29-7 26-7 20-12 29-8 15-7 14-15 24-13 18-11 14-13 15-5 6h-2l-2 4-9 9h-2v2l-8 7-10 9-14 11-18 13-17 11-23 13-23 11-23 9-21 7-26 7-27 5-25 3-14 1h-45l-23-2-26-4-27-6-35-11-31-13-25-13-22-13-14-10-15-11-8-6v-2l-4-2-14-12-22-22-9-11-12-14-10-14-12-18-13-22-8-16-8-17-10-26-8-25-7-30-5-32-2-32v-25l1-24 3-24 4-23 5-21 8-26 9-24 11-24 15-28 14-21 12-17 9-11 12-14 12-13 12-12 8-7 13-11 12-9 14-10 17-11 25-14 21-10 14-6 36-12 28-7 30-5zm-6 42-25 3-17 3-25 6-22 7-25 10-23 11-19 11-21 14-12 9-11 9-13 12-8 7-7 7-7 8-9 10-13 17-7 10-11 17-13 23-12 27-10 27-7 26-5 25-3 21-1 12v52l3 26 5 27 5 20 6 19 7 19 7 15 12 24 11 18 11 16 11 14 9 11 10 11 5 6 7 6 5 5 14 13 17 13 17 12 13 8 22 12 17 8 23 9 19 6 24 6 30 5 19 2 32 1 20-1 37-5 27-6 29-9 22-9 25-12 22-13 16-11 17-13 10-9 8-7 10-9 3-3v-2l3-1 7-8 9-10 10-13 13-18 13-22 8-14 11-24 9-24 8-28 6-30 3-22 1-16v-41l-2-22-5-30-8-32-9-26-10-23-10-20-12-20-12-17-12-16-8-9-7-8-25-25-11-9-14-11-10-7-15-10-14-8-19-10-23-10-30-10-19-5-20-4-19-3-11-1z" fill="#FBFBFB"/>
<path transform="translate(0,477)" d="m0 0h1l3 24 5 32 7 30 7 24 10 27 13 29 13 25 16 26 13 18 10 13 9 11 9 10v2l3 1 7 8 18 18 8 7 15 13 20 15 13 9 19 12 25 14 25 12 31 12 25 8 28 7 35 6 26 3 27 2v1h-441z" fill="#FCFCFC"/>
<path transform="translate(899,471)" d="m0 0h1v425h-439v-1l37-3 38-6 27-6 28-8 30-11 20-9 19-9 24-14 13-8 12-8 11-8 16-13 11-9 13-12 24-24 7-8 9-11 14-18 18-27 9-15 15-29 11-25 7-18 8-26 5-19 6-31 4-27z" fill="#FCFCFC"/>
<path transform="translate(476)" d="m0 0h424v424h-1l-1-5-2-25-6-36-6-25-7-24-11-30-8-18-10-21-12-21-12-19-12-17-11-14-9-11-10-11-7-8-18-18-8-7-14-12-20-15-17-12-26-16-27-14-16-7-11-5-21-8-30-9-26-6-30-5-35-4z" fill="#FCFCFC"/>
<path transform="translate(0)" d="m0 0h422v1l-35 4-38 7-20 5-23 7-29 11-26 12-25 13-26 16-18 13-17 13-15 13-13 12-16 16-2 3h-2l-2 4-10 11-11 14-12 16-8 12-13 21-13 24-13 28-11 30-9 30-6 26-5 32-3 23h-1z" fill="#FCFCFC"/>
<path transform="translate(555,299)" d="m0 0h12l16 6 22 12 12 8 16 12 14 12 13 13 9 11 10 14 8 15 5 15 1 9-2 6-4 6-8 6-9 3h-6l-11-8-14-13-14-11-9-4-15-2-3 1-3 9-1 37v64l1 41 1 10h12l12-1 19-14 17-14 4-2 1-3 4-2h11l10 5 6 7 2 6-1 10-4 10-8 14-8 13-11 14-15 16-20 20-11 9-14 10-9 5-8 4-17 5-6 1h-11l-6-3-2-3-3-26-1-14v-168l2-111 1-21-1-17 2-11 6-8z" fill="#D03233"/>
<path transform="translate(302,301)" d="m0 0h37l6 4 4 8 3 10 1 7 1 31v159l-1 96-1 47-3 10-2 4h-2l-2 4-8 4h-9l-21-7-23-12-15-11-15-13-11-11-7-8-12-15-14-21-10-19-8-20-4-13-4-17-4-28-1-11v-20l4-6 9-6h13l6 4 6 9 3 10 9 40 8 26 8 17 8 10 6 5 7 3h16l10-3 5-5 3-7 1-74v-117l-4-6-9-5-16-3-18-1-5-4-6-10-1-3v-10l4-12 5-8 10-1z" fill="#DC2822"/>
<path transform="translate(425,115)" d="m0 0h36l26 2 27 4 22 5 20 6 24 10 13 8 10 9 5 8 1 8-3 5-6 3h-18l-16-7-21-5-22-4-32-4-27-2h-44l-30 3-26 6-19 7-17 8-12 5-5 1h-13l-5-6v-9l5-13 5-5 13-9 14-8 19-9 19-7 23-6 20-3z" fill="#FBFAFA"/>
<path transform="translate(354,364)" d="m0 0h1l1 25h1v246l-1 27-1 7v13l-1 28-3 12-3 1-1 4-4 2v2l-6 3-9 1-8-1-9-4-7-3-13-6-14-9-11-9-10-9-7-5-4-4-1-3-7-6-7-8-10-13-5-7-1-3-2-1-6-11-9-17-3-7v-6h-2l-5-14-4-13-6-30-2-18 1-13 3-12 2 3 5 25 4 14 6 16 11 23 14 21 10 13 18 20 7 7 11 9 15 11 23 12 21 7h9l8-4 2-3h2l3-9 1-5 1-47 1-96z" fill="#929595"/>
<path transform="translate(540,374)" d="m0 0h1v42l-1 54v168l3 33 2 9 6 3h11l17-4 12-5 8-4 10-7 12-9 15-14 19-19 7-8 13-17 5-9 6-1 5 9 3 4 1 4v11l-5 13-7 10-4 7-4 6h-2v3l-4 4h-2l-2 5-9 10-7 8-17 17-16 12-4 4h-2l-1 3-5 2-6 6-7 3-9 3-8 3-7 1h-11l-7-4-7-12-3-24v-20l-2-29v-153l2-112z" fill="#929595"/>
<path transform="translate(601,408)" d="m0 0 15 2 12 6 15 13 11 10 10 7 11-1 7-3 6 4 4 12 2 4 1 13-3 7-5 5-4 2v2l-7 4-13-2-10-6-14-11-5-5-9-6-7-3-9-1-6 3-4 7-2 14v18l2 52v8l-1 3v5h10v1h-12l-1-1-1-15-1-36v-64l1-37 3-9z" fill="#929595"/>
<path transform="translate(351,319)" d="m0 0 2 3 2 18 2 19 2 3 4 17 1 39v225l-2 63-2 14-3 11-8 7-14 5-3 1-4 1-22-9-21-10-19-11-12-8-1-2 6 2-1-4-5-4-1-3-2-1v-2h-2v-2l-4-2-4-4v-2l-4-2-7-8-2-1v-3l-3-1-9-11-2-2v-3h-2l-9-14v-3h-2l-9-19-4-8-3-9-5-16-2-10-3-9-2-14-2-18v-20l3-9 4-2v-2h3l-1 9-3 13v9l3 22 1 4 3 16 6 21 3 7v3h2l2 7 4 10 11 20 1 4 3 1 3 6 10 13 9 10 5 6 3 2v3l4 2v2l4 2 14 12 14 11 10 6 11 5 12 6 9 2 5 1 9-1 6-2v-2l4-3 1-3 2-1 3-12 1-40v-6l1-7 1-30v-227h-1l-1-36-1-3-1-31z" fill="#E0E2E4"/>
<path transform="translate(354,364)" d="m0 0h1l1 25h1v246l-1 27-1 7v13l-1 28-3 12-3 1-1 4-4 2v2l-6 3-9 1-8-1-9-4-7-3-13-6-14-9-11-9-10-9-7-5-4-4-1-3-7-6-7-8-10-13-5-7-1-3-2-1-6-11-9-17-3-7v-6h-2l-5-14-4-13-6-30-2-18 1-13 3-12 2 3 5 25 3 19 1 11 4 14 4 9v4h2l3 10 5 10 2 7 3 4 2 5 6 10 7 11 5 8 3 3 3 4v2h2l8 10 6 5 5 6v2l4 2 3 2v2l4 2 7 6 9 5 10 6 12 6 15 5 11 1 1-3 4-4 2-10 1-21h-2l2-4 2-3h2l3-9 1-5 1-47 1-96z" fill="#B9B9B9"/>
<path transform="translate(540,374)" d="m0 0h1v42l-1 54v168l3 33 2 9 4 3 4 29 3 8 4 2 11-1 15-5 16-8 14-11 8-8 6-5 10-10h2l2-4 3-4h2l2-4 3-4h2l2-5 4-5 2-1 4-8h2l2-5h2l1-5 5-7 3-8 1-10-2-10h-5l2-6 3-2h4l5 9 3 4 1 4v11l-5 13-7 10-4 7-4 6h-2v3l-4 4h-2l-2 5-9 10-7 8-17 17-16 12-4 4h-2l-1 3-5 2-6 6-7 3-9 3-8 3-7 1h-11l-7-4-7-12-3-24v-20l-2-29v-153l2-112z" fill="#B9B9B9"/>
<path transform="translate(254,350)" d="m0 0h16l16 3 9 5 4 5 1 2v117l-1 74h-1l-1-10v-120l-1-11-4-6-7-4-9-2-16-2-10-5-7-8-2-5-1-7 2-12 6-8 6-4z" fill="#AEAAA9"/>
<path transform="translate(539,354)" d="m0 0h1l-2 138v153l2 33v18l3 22 6 10v2l4 2 3 1h11l11-2 5-2 8-3 3-2h4l1-3 4-1 1-3 5-2 5-5 7-6 13-10 20-20 12-15 1-2h2l2-4h2v-3h2l2-5 4-5 4-7 5-9 4-10v-11l-3-7-5-8v-2l-5 1 2-5 4-7h1l2 6 3 4 1 5 3 3 3 5 1 4v13l-4 10-4 6h-2l-1 6-4 6-3 3-6 10h-2l-2 5-8 9h-2v3l-4 4h-2l-2 4-14 13h-2l-2 4h-2l-1 3-4 4h-3v3h-3l-1 3-10 7h-2l-1 5 7-3-1 3-16 8-19 9-14 5-3-1 8-4-3-1-6 1h-11l-9-7-1-4h-2l-5-15-1-20-1-11-1-33v-70l1-48 2-26 2-140z" fill="#E0E3E4"/>
<path transform="translate(681,442)" d="m0 0 6 3 3 7 4 10 1 13-3 7-5 5-4 2v2l-7 4-13-2-10-6-14-11-5-5-9-6-7-3-9-1-6 3-4 7-2 14v18l2 52v8l-1 3v5h10v1h-12l-1-1-1-15-1-36v-64l8-5 4-1h11l11 4 11 7 6 4 5 5 9 7 6 4 3 1h10l5-6 1-7-2-10-3-6v-5h-2l1-4z" fill="#B9B9B8"/>
<path transform="translate(356,428)" d="m0 0h1v207l-1 27-1 7v13l-1 28-3 12-3 1-1 4-4 2v2l-6 3-9 1-8-1-9-4-7-3-13-6-14-9-11-9-10-9-7-5-4-4-1-3-7-6-7-8-10-13-5-7-1-3-2-1-6-11-9-17-3-7v-6h-2l-5-14-4-13-6-30-2-18 1-13 3-12h1l1 28 1 16 4 19 1 7 2 5 1 8 4 9 4 11 5 11 1 5h2l3 6 6 10 5 9 3 3 4 7 4 5v2l3 1 4 6v2h2v2h2l6 7 7 6 5 5 10 9 11 8 3 1v2l4 1 7 5 8 3 4 1v2l8 1 7 3 12 1 8-5 1-2h2l2-6 1-1 2-26v-18l3-16 2-190v-37z" fill="#C8C9CB"/>
<path transform="translate(132,759)" d="m0 0h3v2l4 2 14 12 10 9 10 8 8 6v2l5 2 9 7 3 1 1 2 6 3 9 6 11 6 15 9 18 9 7 3 9 4 12 5 6 2 17 6 12 3 7 2 9 2 5 2 16 3 13 2 2 1v2l6 1-2 2-10 1h-9l-26-6-29-9-24-9-25-11-25-13-20-12-12-8-14-10-13-10-13-11-10-9-9-10-3-3v-2h-2z" fill="#F0261C"/>
<path transform="translate(288,355)" d="m0 0 6 2 5 6 1 2v41h-1l-2-6-10-6-13-3-12-2-7-4-2-6 1-10 5-6 18-6 8-1z" fill="#929595"/>
<path transform="translate(691,431)" d="m0 0 1 2-3 3zm-3 5 6 12 6 16 1 9-1 9-6 9h-2v2h-3v2l-10 5-4 1h-7l-10-4-9-6v-2l-4-2-13-11-11-7-9-3-6 1-3 7-1 10v40l1 31v14h18l-1 2h-22l-1-6 1-6-1-37-1-29 1-18 4-10 5-4 7-1 10 3 10 6 6 5 5 5 12 9 10 5 10 1 5-3h2v-2l7-5 3-5 1-7-1-10-4-10-3-7-4-2v-2z" fill="#E2E3E5"/>
<path transform="translate(537,47)" d="m0 0h6l1 1 8 1 12 3 22 8 12 5 16 7 16 8 13 7v2l6 1 4 3 5 3 7 5 5 3 13 9 11 9 8 6 3 3v2l4 1 5 5 3 2v2l4 2 6 6v2l2 1v4l-4-1-15-14-11-9-16-13-30-20-29-16-22-10-29-11-23-7-9-3-4-4z" fill="#EF261D"/>
<path transform="translate(250,348)" d="m0 0 7 3-4 3-6 4-4 6-2 13 2 8 3 5 4 5 10 5 21 3 7 3 5 3 4 6 1 11v133l-3 6-1-4 1-4-3-6v-128l-1-7-6-5-6-2-20-2-10-4-10-9-4-8-1-12 1-9 5-10 8-6z" fill="#E0E2E4"/>
<path transform="translate(200,694)" d="m0 0 7 3 7 7 3 2v2l4 2 7 6 14 11 11 7 5 4 9 6 8 4 12 7 21 10 14 5 5 3 8 2 17 6 17 5 3 2-9 3-17-4-26-9-25-11-23-12-13-8-20-14-14-11-21-18-5-6z" fill="#EF261D"/>
<path transform="translate(183,523)" d="m0 0h1l2 8 3 19 1 11 4 14 4 9v4h2l3 10 5 10 2 7 3 4 2 5 6 10 7 11 5 8 3 3 3 4v2h2l8 10 6 5 5 6v2l4 2 3 2v2l4 2 7 6 9 5 10 6 12 6 15 5 11 1 1-3 4-4 2-10 1-21h-2l2-4h3l1 5v15l-2 15-3 6-4 4-10 2-10-3-12-4-5-3-5-2-8-4v-2l-5-2-6-3-6-4-5-5-10-8-7-8-12-13-5-7v-2h-2l-3-5-8-11-4-8-4-7-7-12-9-24-9-34-1-6-1-14-1-4z" fill="#AEAAA9"/>
<path transform="translate(351,338)" d="m0 0h2l1 23v159l-1 96-1 47-3 10-2 4h-2l-2 4-8 4h-9l-21-7-23-12-5-5 5 2 16 9 15 6 14 4 9-1 5-2 6-8 1-6 2-137z" fill="#D03233"/>
<path transform="translate(537,579)" d="m0 0h1l1 62 3 34 2 10v13l2 15 3 9 7 7h11l21-6 5-3 7-2v-2l7-4 11-9h2l1-3 5-4h2v-2l5-4h2l2-4h2l2-4 5-4 6-8 5-5 7-9h2l2-5 7-8 2-4h2l1-4 5-9 4-8 1-6v-14h-2l-4-8-3-3 5-1 5 9 3 4 1 4v11l-5 13-7 10-4 7-4 6h-2v3l-4 4h-2l-2 5-9 10-7 8-17 17-16 12-4 4h-2l-1 3-5 2-6 6-7 3-9 3-8 3-7 1h-11l-7-4-7-12-3-24v-20l-2-29z" fill="#C8C9CB"/>
<path transform="translate(523,209)" d="m0 0 17 3 13 3 3 2 9 2 12 5 18 8 7 3 15 8 7 4v2l6 2 6 4v2l5 1 3 3 4 2v2l5 2 4 3v2l5 2 1 3 4 2 4 4v3l-5-1-17-13-17-12-23-13-25-12-20-8-26-8-6-3v-3h-14l2-3z" fill="#EF261D"/>
<path transform="translate(678,590)" d="m0 0 6 4 4 10 1 6-5 13-9 14-5 9-2 1-3 5-8 9-7 8-2 3h-2v2h-2l-2 4-5 6-5 2-2 4-21 18-9 6-8 4-12 5-9 2-3 1h-11l-5-5-3-6-4-31-1-4 5 3 4 29 3 8 4 2 11-1 15-5 16-8 14-11 8-8 6-5 10-10h2l2-4 3-4h2l2-4 3-4h2l2-5 4-5 2-1 4-8h2l2-5h2l1-5 5-7 3-8 1-10-2-10h-5z" fill="#ADA9A8"/>
<path transform="translate(476,285)" d="m0 0h1v79l-2 56-1 90v183h-1l-1-19-1-31v-176l1-53 2-42z" fill="#D92F2D"/>
<path transform="translate(359,370)" d="m0 0h2l2 9 1 39v225l-2 63-2 14-3 11-8 7-14 5-3 1-4 1-12-5v-2l16 2 8-1 10-6 3-1 2-5 3-12 1-16 1-13v-24l2-37v-148l-1-44v-36l-1-18z" fill="#F4EFEE"/>
<path transform="translate(682,443)" d="m0 0 5 2 3 7 4 10 1 13-3 7-5 5-4 2v2l-7 4-13-2-10-6-14-11-5-5-9-6-7-3-9-1-6 3-4 7-2 14v18l2 52v8l-1 3v5l-2-1-1-32v-68l2-5 5-6 3-2h10l11 4 9 6 10 9 8 6 5 4 11 4h6l8-5 5-5 2-3v-12l-4-10-2-6z" fill="#C8C9CB"/>
<path transform="translate(729,647)" d="m0 0 4 2-2 1 1 3h-2v2l-5 4-1 4h-2l1 3-4 9-14 15-2 3h-2l-2 4-8 8-8 7-4 3-5 1-6 2-1-3 6-7 5-2 2-4 7-5 1-3 4-4h2v-2h2l2-4 3-4h2l2-4 7-9h2l2-4 4-4h2v-2h2l2-5 1-2h2z" fill="#F0261C"/>
<path transform="translate(257,351)" d="m0 0h6v2l-8 2v2l-5 5-3 5-1 3v12l5 8 7 5 8 2 13 1 11 4 7 6 2 4v144h-1l-1-10v-120l-1-11-4-6-7-4-9-2-16-2-10-5-7-8-2-5-1-7 2-12 6-8z" fill="#C6C7C9"/>
<path transform="translate(518,115)" d="m0 0h8l8 3 11 2 8 3 12 4v2l5 1 10 5 5 3 2 2 5 4 3 3v2h-5l-12-7-25-10-24-7-10-2v-2h-3v-5z" fill="#F0261C"/>
<path transform="translate(679,443)" d="m0 0 1 3 5 12 3 10v6l-2 5h-2l-2 4-8 4-9-1-8-4-9-7v-2l-4-2-10-8-6-3v-2l-5-1-5-2-12-1-7 5h-3l-1 3-1 58h-1v-64l8-5 4-1h11l11 4 11 7 6 4 5 5 9 7 6 4 3 1h10l5-6 1-7-2-10-3-6v-5h-2l1-4z" fill="#ADA9A8"/>
<path transform="translate(286,352)" d="m0 0 6 2 8 6 3 8v72l-1 68-1 45-2 3v-191l-4-6-9-5z" fill="#D03233"/>
<path transform="translate(355,369)" d="m0 0h2l1 13 1 107v140l-1 3-1 19h-1v-251h-1z" fill="#F4EFEE"/>
<path transform="translate(254,350)" d="m0 0h16l11 2-4 2-9 2-7 2-5 3h-2l-2 5-2 7v10l4 5 8 4 23 4 5 2 8 7 1 7-2-4-4-2-5-4-11-3-15-2-7-3-7-6-3-6v-12l3-7 5-6h2v-2l5-2h3v-2h-9z" fill="#B9B9B9"/>
<path transform="translate(354,364)" d="m0 0h1l1 25h1v38l-1 2v38l-2 186-2 1v-38l1-96z" fill="#B5B3B3"/>
<path transform="translate(473,510)" d="m0 0h1v41h2v105l1 35v21h-1l-2-27-1-34z" fill="#D4CFCE"/>
<path transform="translate(479,261)" d="m0 0h1v29l-2 103-1 32-1 17-2 1v-28l2-51 1-64 1-35z" fill="#E1DCDB"/>
<path transform="translate(726,99)" d="m0 0 5 1 10 8v2l4 2 5 4v2l7 2 7 7 3 5 7 8v2l7 6 1 5-4-2-6-7-5-5-5-4-7-8-5-4-5-5-1-3-4-2-7-5v-2l-3-1-1-2-3-1z" fill="#F1261B"/>
<path transform="translate(362,647)" d="m0 0h1v20l-1 39-2 14-3 11-8 7-14 5-3 1-4 1-12-5v-2l16 2 8-1 10-6 3-1 2-5 3-12 1-16 1-13v-24l1-14z" fill="#F4EFEE"/>
<path transform="translate(543,518)" d="m0 0 2 2 1 22v8l-1 8 1 21v16l-1 18v16l-2 3-1-6v-105z" fill="#DD2822"/>
<path transform="translate(181,503)" d="m0 0h1l4 21 6 21 11 27 9 17 11 16 10 13 7 8-1 2-7-7-15-20-12-19-10-21-7-18-6-25z" fill="#D03233"/>
<path transform="translate(701,660)" d="m0 0h3l-1 4-2 5-7 6-5 6-7 6-2 2-8 6-3-1v-2l6-4h2l-1-3 3-3 5-7h2l2-4 6-4 5-5z" fill="#F3261B"/>
<path transform="translate(169,516)" d="m0 0 2 1v18l4 26 1 7 2 5 2 10 3 10 4 10 3 9 4 8-1 3-8-15-2-4-2-8-3-8-3-10-3-14-2-12-1-16-1-10v-8z" fill="#F4EFEE"/>
<path transform="translate(475,442)" d="m0 0h1v107l-2 2-1-49 1-59z" fill="#F2EDEC"/>
<path transform="translate(609,719)" d="m0 0 2 2-1 2 7-3-1 3-16 8-19 9-14 5-3-1 8-4v-3l13-4 16-8 5-3h2z" fill="#F0EBEA"/>
<path transform="translate(595,314)" d="m0 0 10 3 12 8 8 8 10 7 5 5 5 6-4-1v-2l-5-1-4-2v-2h-2l-5-5-4-3-1-2-4-1-3-3v-2l-4-2-7-3-7-7z" fill="#DC2923"/>
<path transform="translate(665,535)" d="m0 0h11l10 5 6 7-2 2-4 1-2-3v-2l-14-2-4 1-4-2 1-6z" fill="#DB2924"/>
<path transform="translate(531,630)" d="m0 0h1l2 53 2 31 4 13v2h2l3 5 7 5-4 1-8-7v-2h-2l-3-9-4-27z" fill="#F4EFEE"/>
<path transform="translate(693,588)" d="m0 0 4 1 3 3 3 10-1 16-4 8-5 9-6 9-4 7-3 3-1 3-4 4-2-1 2-4 2-1 6-11 3-1 2-5 3-7 3-3 5-10 1-3v-13l-3-7-1-4-3-1z" fill="#F4EFEE"/>
<path transform="translate(609,465)" d="m0 0 8 1 11 6 13 11 8 6v2l5 2 5 4 9 3 7 1v1h-10l-12-6-8-6v-2h-2v-2l-4-2-6-4-5-5-8-5-5-2h-7l-5 5 1-5z" fill="#F4EFEE"/>
<path transform="translate(267,650)" d="m0 0 6 1v2l6 2v2h4v2h2v2l7 2 3 6-6-1-13-8-7-5z" fill="#EF261C"/>
<path transform="translate(358,720)" d="m0 0h1l-1 8-3 5-8 6-15 5-4 1-12-5v-2l16 2 8-1 10-6 3-1 2-5z" fill="#F4EFEE"/>
<path transform="translate(662,719)" d="m0 0 2 1-2 4 2 1-4 3v3h-6l-3 3-4 1 1 2-5 2h-2-2v2l-2-1v-3l6-3 3-3 7-5h3l2-4z" fill="#F2261B"/>
<path transform="translate(694,448)" d="m0 0 2 1 5 13 1 3v17l-6 10-3 1v2h-2v2l-13 5-3-1 12-6h2v-2h3v-2l5-5 3-7v-11l-3-11-3-5z" fill="#F4EFEE"/>
<path transform="translate(629,412)" d="m0 0 5 3 1 2 6 3 6 5 2 1 4 3v2l4 1 1 6-5-2-12-11-8-7-5-5z" fill="#DD2822"/>
<path transform="translate(253,697)" d="m0 0 6 4 9 9-1 3 4 2 16 9-3 1-18-10-12-8-1-2 6 2-1-4-5-4z" fill="#EFEAE9"/>
<path transform="translate(230,691)" d="m0 0 12 6 13 10 5 3-1 4-9-6-7-3-13-13z" fill="#EB281F"/>
<path transform="translate(235,386)" d="m0 0 3 4 4 6 9 7 8 3 20 2 9 4-2 1-8-3-19-1-13-5-5-4-4-5-3-8z" fill="#F4EFEE"/>
<path transform="translate(351,319)" d="m0 0 2 3 2 18 2 19 2 3 1 8-2-1-1-5-1 5h-1l-2-8-1-31z" fill="#E4DFDE"/>
<path transform="translate(192,140)" d="m0 0 2 1-38 38v-3l16-17 11-11 8-7z" fill="#E7E4E4"/>
<path transform="translate(476,401)" d="m0 0h1v24l-1 17-2 1v-28l1-13z" fill="#E0DBDA"/>
<path transform="translate(896,396)" d="m0 0h1l2 23 1 5v22h-1l-2-15-1-23z" fill="#D53130"/>
<path transform="translate(265,135)" d="m0 0 2 1-24 16-12 9-4 2 1-3 19-14z" fill="#E2DEDD"/>
<path transform="translate(541,317)" d="m0 0 1 4 1 23-1 15h-1l-1-7v-34z" fill="#DBD6D5"/>
<path transform="translate(497,111)" d="m0 0 9 2 1 2-4 3-7 1-4-2 1-5z" fill="#F2261B"/>
<path transform="translate(404,893)" d="m0 0 27 1 10 1v1h-36z" fill="#DDD8D7"/>
<path transform="translate(474,401)" d="m0 0h1v19l-1 19h-2v-24l1-1z" fill="#DB2E2B"/>
<path transform="translate(210,178)" d="m0 0 2 1-25 25v-3l14-15z" fill="#DB2C29"/>
<path transform="translate(242,352)" d="m0 0v3h-2l-2 6-2 4-1 10v11l-2-2-1-11 1-4 3-10 4-6z" fill="#F4EFEE"/>
<path transform="translate(194,623)" d="m0 0 3 3 3 6v3h2l5 9 4 6-1 2-6-8-6-9-4-9z" fill="#F4EFEE"/>
<path transform="translate(476)" d="m0 0h28l1 2-2 1h-9l-18-2z" fill="#E1DCDB"/>
<path transform="translate(642,692)" d="m0 0 1 2-2 3h-2l-2 4-5 4-4 5h-4v-2h3v-3h3l2-4 6-5z" fill="#F4EFEE"/>
<path transform="translate(707,83)" d="m0 0 5 1 4 3 2 7-4-2v-2h-4v-2h-2v-2l-2-1z" fill="#ED271D"/>
<path transform="translate(522,44)" d="m0 0h7l4 2v2l-8 2-5-1v-3h2z" fill="#F3261B"/>
<path transform="translate(376,788)" d="m0 0 9 1 4 2-3 2h-9l-4-3z" fill="#F3261B"/>
<path transform="translate(316,738)" d="m0 0 14 2 2 4-4 1-12-5z" fill="#F1EDEC"/>
<path transform="translate(477,376)" d="m0 0h1v17l-1 8-2 1v-11l1-14z" fill="#E6E1E0"/>
<path transform="translate(496,40)" d="m0 0h7l3 2-1 3-4 2-4-1-2-4z" fill="#F1261B"/>
<path transform="translate(397)" d="m0 0h25v1l-19 2h-9z" fill="#E1DCDB"/>
<path transform="translate(0,477)" d="m0 0h1l2 16v7l-3 3z" fill="#E0DCDB"/>
<path transform="translate(214,172)" d="m0 0 3 1-10 9-8 7-4 3 2-4 9-9h2l1-3z" fill="#E9E4E3"/>
<path transform="translate(687,575)" d="m0 0h1l2 6 3 4-1 3-4-5h-3l1 3-5 1 2-5z" fill="#EFEAE9"/>
<path transform="translate(654,730)" d="m0 0 4 2-11 8v-3l-2-2h2l1-2 4-1z" fill="#DD2924"/>
<path transform="translate(526,120)" d="m0 0 7 1-2 1v2l5 1-4 1-11-3 2-2z" fill="#DC2A25"/>
<path transform="translate(244,148)" d="m0 0v3l-13 10-4 2 1-3z" fill="#EAE5E4"/>
<path transform="translate(700,692)" d="m0 0 2 1-7 8-3 3h-2v-3l4-1 2-4h2z" fill="#E22821"/>
<path transform="translate(302,732)" d="m0 0 9 3 5 2-1 3-13-6z" fill="#EBE6E5"/>
<path transform="translate(586,307)" d="m0 0 8 4-2 4-8-6z" fill="#DA2B27"/>
<path transform="translate(526,213)" d="m0 0h6v3l5 1-3 1-11-3z" fill="#DD2A25"/>
<path transform="translate(356,652)" d="m0 0h1v16l-2 2-1-4z" fill="#F4EFEE"/>
</svg>
