<?xml version="1.0" encoding="UTF-8"?>
<svg version="1.1" viewBox="0 0 900 900" width="225" height="225" xmlns="http://www.w3.org/2000/svg">
<path transform="translate(0)" d="m0 0h900v900h-900z" fill="#FDFDFD"/>
<path transform="translate(474,16)" d="m0 0h22l16 5 12 7 12 11 8 10 6 10 16 3 12 5 9 6 6 8 3 5 3 12v12l-4 15-6 12-9 11-10 7-10 5-8 3-28 1-12 26 1 7 22 71 14 44v2l135-1 196-1v3l-11 14-11 12-7 8-5 6h-2l-2 4h-2l-2 4-8 7-13 13-8 7-10 9-11 9-13 11-14 11-18 14-36 26-33 22-23 15-26 16-3 1 25 81 25 82 10 33 6 19 14 46 8 26 1 5-9-6-14-10-18-13-16-12-28-20-16-12-13-9-15-11-18-13-11-8-14-10-16-12-28-20-36-26-9-7-2-2-5 1-13 9-17 12-15 11-18 13-16 11-19 13-11 8-18 13-23 16-18 13-20 14-23 16-34 24-16 11-8 6h-2l2-6 6-17 12-36 6-15-44 16-20 7-8 3-4-1 9-8h2l1-3h2l2-4 9-12 8-13 7-17 2-9v-23l-4-14-8-15-8-10-5-6-11-9-12-9-19-11-21-11-6-3 3-2 22-3 41-8 11-2h5l-1 5-2 2-29 6-27 5 18 10 12 8 9 7 12 11 9 9 10 15 6 14 3 13v19l-3 14-6 15-7 13-8 11 18-6 38-15 41-18 18-8 50-23 16-7 17-9 82-41 22-12 27-15 28-15 23-13 21-12 16-9 24-14 26-15 17-10 24-15 17-11 25-17 20-14 19-14 13-10 15-12 22-18 10-9 8-7 10-9 17-16 8-8 3-4h2l2-4 5-4 1-2-6 2-36 18-28 13-18 8h-3l2-13v-8l-5-5-6-1-6 2-2-11-4-6-7-3-9 1-12 5-10 8-9 10-8 14-6 16-1 2h-2l1-7v-9l-4-7-6-4-3-1h-7l-10 3-10 6-9 8-10 15-4 7h-2l-5-10-7-3h-7l-7 3-6 2-4-6-7-3-11 2-6 4-4 8v13l3 5-1 5h-2l-4-8-6-4-9-1-9 4-5 3-6 8-3 1-10-4h-7l-6 4-4 5-7 16h-3l-4-8-6-4h-12l-14 7-11 9-10 9-5 4-1-4 8-14 16-26 15-23 1-2v-6l-4-6-2-1h-15l-11 4-8 7-10 11-8 10-9 10-9 11-11 13-11 14-11 13-13 17-11 14h-4v-20l4-17 12-31 1-4v-14l-3-6-6-5-9-1-11 4-8 7-8 9-10 16-6 15-1 6v10l1 15v2l1 7-5-1-13-10-15-11-19-14-8-6-38-28-11-8-13-10-17-12-12-9-11-8-16-12-14-10-16-12-14-10-18-13-5-5 5-1h79l180-1h46l17-1 60-180 3-8v-3l-12-6-10-8-9-10-4-9-1-4v-14l4-14 6-12 9-11 11-9 10-5 7-2h15l8 2 8 3 15-6z" fill="#0C1BA1"/>
<path transform="translate(411,157)" d="m0 0h16l12 2 20 6 16 8 19 12 9 8 5 11 10 32 9 29 15 49 2 6 2 1h182l118-2h17v3l-9 6-21 10-38 19-24 11-6 1-1-5v-8l-5-5-6-1-6 2-2-11-4-6-7-3-9 1-12 5-10 8-9 10-8 14-6 16-1 2h-2l1-7v-9l-4-7-6-4-3-1h-7l-10 3-10 6-9 8-10 15-4 7h-2l-5-10-7-3h-7l-7 3-6 2-4-6-7-3-11 2-6 4-4 8v13l3 5-1 5h-2l-4-8-6-4-9-1-9 4-5 3-6 8-3 1-10-4h-7l-6 4-4 5-7 16h-3l-4-8-6-4h-12l-14 7-11 9-10 9-5 4-1-4 8-14 16-26 15-23 1-2v-6l-4-6-2-1h-15l-11 4-8 7-10 11-8 10-9 10-9 11-11 13-11 14-11 13-13 17-11 14h-4v-20l4-17 12-31 1-4v-14l-3-6-6-5-9-1-11 4-8 7-8 9-10 16-6 15-1 6v10l1 15-6-2-16-12-15-11-12-9-14-10-13-10-11-8-19-14-12-9-11-8-12-9-14-10-13-10-17-12-13-10-14-10-10-7v-2l2-1h73l219-1 14-1 3-2 12-36 6-20 14-41 12-36 8-23z" fill="#E02027"/>
<path transform="translate(613,529)" d="m0 0 4 2 25 82 18 58 17 55 9 30 7 23 4 12-1 5-5-2-38-28-16-12-13-9-16-12-11-8-17-12-16-12-28-20-11-8-10-7-30-22-14-10-13-9-5-4 3-4 12-6 10-6 12-6 10-6 33-18 17-10 14-8 11-6 14-8z" fill="#C81A2B"/>
<path transform="translate(487,187)" d="m0 0 7 1 2 6 5 2 4 1 6 16 14 46 16 51 3 10 2 1h182l118-2h17v3l-9 6-21 10-38 19-24 11-6 1-1-5v-8l-5-5-6-1-6 2-2-11-4-6-7-3-9 1-12 5-10 8-9 10-8 14-6 16-1 2h-2l1-7v-9l-4-7-6-4-3-1h-7l-10 3-10 6-9 8-10 15-4 7h-2l-5-10-7-3h-7l-7 3-6 2-4-6-7-3-11 2-6 4-4 8v13l3 5-1 5h-2l-4-8-6-4-9-1-10 3-3-5-3-2-4 1-2-2-5 1v-2l-5-1-5-6-3-24-1-14-2-12-2-24-3-24-1-16-1-10-4-39-3-27v-12l1-2z" fill="#C81A2B"/>
<path transform="translate(432,383)" d="m0 0 8 1-1 7-10 16-12 19-9 15-10 18-10 21-11 28-14 37-6 23-3 18-1 13v12l3 9 10 6-1 4-5 5-8 3h-8l-8-3-6-7-4-11-1-7v-12l3-18 7-27 14-46 8-22 11-25-6 5-20 26-16 21-9 12-5 11-3 21-3 20-5 15-7 13-9 10-9 6-3 1h-7l-5-5-1-5 5-13 8-15 8-20 1-4v-19l-3-7h-3l-13 20-12 18-9 12-9 11-12 13-14 11-14 8-11 3-9-1-8-4-8-9-2-6v-18l3-11 7-16 7-11 8-10 10-9 11-7 10-5 19-5 7 1-1 6-10 7-13 9-5 4-12 16-5 10-5 16-1 5v9l3 9 9 1 11-7 15-15 11-14 10-13 10-14 10-18 5-13 4-19v-11l-1-7v-21l4-12 6-11 8-11 6-7 9-6 2-1h8l5 6 1 10-2 8-10 25-4 14-2 12v16l3 16 4 1 7-9 14-19 8-9 9-12 5-7h2l2-4 9-11 11-13 9-11 12-14 9-11 10-10 10-4z" fill="#2A3696"/>
<path transform="translate(727,338)" d="m0 0h9l4 6v8l-6 18-7 11-9 9-7 5-2 4-1 12 1 6 5-1 9-6 7-8 8-13 8-17 5-13 3-3 4 2v7l-5 16-8 16-7 11-8 10-10 9-11 5-4 1h-7l-7-3-5-6-3-9v-7l-8 1-6 5-8 16-7 12-9 10-7 6-9 3-9-1-6-5-4-5-2-1-2 5-12 16-5 6-8 6-9 2-5-3-1-2v-13l6-24 8-20 3-9-9 3-6 9-16 32-14 23-10 14-7 6-7 3h-6l-6-5-1-7 3-15 8-18 5-10-1-5-4-2-8 10-11 17-10 19-11 27-5 6-3 1h-7l-4-5v-9l5-16-1-4-5 1-7 6-20 26-7 8-11 8-3 1h-11l-5-5-2-6 1-13 6-17 10-18 9-11 9-10 13-11 11-7 5-2 9 1 4 4-1 7-4 4-15 5-9 7-9 12-8 14-5 11-4 14v5l5 1 10-11 11-15 1-2 1-18 5-7 7-5h6l2 5v7l6-2 7-7 8-15 8-20 4-6 4-2 8 1 8 5 5-5 8-9 9-4h6l6 5 1 3v8l-3 12-5 12-13 23-1 5 5-2 17-28 11-19 4-7 1-5-3-8-3-6v-7l3-6 5-3 9-1 5 5 2 7h4l7-6 9-3 6 2 3 5v9l-5 17-9 21-9 19-1 5 5-3 7-10 9-17 15-33 10-19 7-9 11-8 8-4h11l5 4 1 9-4 4-7-2h-6l-6 4-7 10-8 16-5 17v12l3 3 5 1 7-3 6-8 3-7 1-5v-24l3-5 5-4h8l4 5 3 5 4-1 4-6 7-19 8-14 8-9 10-7z" fill="#2A3696"/>
<path transform="translate(479,22)" d="m0 0h9l14 3 16 8 9 7 6 5v2h2l14 19 5 9-2-9 12 2 12 5 8 6 5 6 4 9 1 4v13l-2 10-4 10-6 9-10 10-10 6-8 3h-7l-4-4-2-4v-10l4-6 7-5 1-2-9 2h-18l-16-5-13-7-9-7-9-9-12-15 6 12 9 10 1 3-9-1-21-7-15-8-12-11-6-9-5-9 1 12 4 13 3 6v5l-3 3-7-1-8-7-7-11-3-8v-16l4-16 5-10 8-9 7-4 5-1h11l12 4 2 3-8 8 5-2 15-9 11-4z" fill="#FDFDFD"/>
<path transform="translate(474,16)" d="m0 0h22l16 5 12 7 12 11 8 10 6 10 16 3 12 5 9 6 6 8 3 5 3 12v12l-4 15-6 12-9 11-10 7-10 5-8 3-29 1v-12h-2l-3 9-10 26-4-1-11-8-19-11-18-8-14-4-12-2-19-1 2-9 2-4 9 1 23 6 7 1v-2l-6-2-10-4-20-5 1-6 4-10-1-4-3 4-1 3-3-1-1 8-2 5h-2l2-11-12-6-10-8-9-10-4-9-1-4v-14l4-14 6-12 9-11 11-9 10-5 7-2h15l8 2 8 3 15-6zm5 6-14 3-11 6-11 7-1-1 6-5 1-3-4-3-10-3h-11l-9 3-8 7-4 5-6 15-2 10v16l4 10 8 11 8 6h5l3-3-1-7-5-12-2-11v-6l8 14 9 10 11 8 15 7 19 6h6l-2-4-8-9-6-12 4 5 12 14 8 8 11 7 13 6 11 3h18l9-2-5 5-5 4-2 4v10l4 7 2 1h7l10-4 10-7 10-10 7-14 2-6 1-7v-13l-3-10-6-8-6-5-12-6-12-3h-3l2 10-7-13-10-13-2-3h-2l-2-4-14-11-15-7-14-3z" fill="#2A3696"/>
<path transform="translate(422,113)" d="m0 0 2 1-1 6-5 14 9 1 17 5 10 5v2h-7l-27-7-5-1-3 10-1 3h19l20 4 16 6 19 10 11 7 9 7 3 1 1-5 8-21 4-9h2l1 3v7l-5 13-7 15 1 7 22 71 14 44v2l135-1h192v1l-73 1 3 2h49l7-2h6l1 2-3 5-2 2-3-1 2-3h-17l-118 2h-182l-4-4-8-27-12-38-13-43-5-13-4-6-9-7-13-8-10-6-15-6-19-5-7-1h-16l-3 4-10 28-14 43-24 72-4 13-4 3-14 1-219 1h-75l5 5 11 7 13 10 19 14 11 8 12 9 17 12 10 8 11 8 19 14 16 12 22 16 15 11 36 27 3 1 3 7v3l-5-1-13-10-15-11-19-14-8-6-38-28-11-8-13-10-17-12-12-9-11-8-16-12-14-10-16-12-14-10-18-13-5-5 5-1h79l180-1h46l17-1 60-180h3l2-9 1-4h3l1-4z" fill="#0E1D9E"/>
<path transform="translate(729,331)" d="m0 0 9 1 6 5 3 7v8l6-3 6 1 4 3-2 6-3 4-2-6-4 2-8 20-9 17-9 12-8 7-6 3-4-1-1-9 1-9 4-6 9-7 8-9 6-12 4-13v-8l-3-5h-9l-14 7-6 5-8 10-8 16-6 16-5 6-4-1-6-9h-8l-6 5-1 3v24l-3 10-6 9-5 4-6 1-6-3-1-2v-12l5-17 8-16 8-11 6-4 9 1 4 1 3-3-1-9-4-3h-11l-13 7-4 4h-2l-2 4-7 10-13 27-13 28-10 17-5 5h-3l1-8 11-22 9-24 2-8v-9l-2-4-6-2-10 4-7 6-4-2-3-9-3-2-9 1-5 3-2 5v7l5 10 1 5-4 10-8 13-17 29-6 8h-4l1-7 15-27 4-12 1-6v-8l-3-5-3-2-9 1-7 4-7 8-5 5-11-6-8 1-5 3-5 5-4 9-2-1 1-6 6-12 7-6 2-1h7l11 4 10-10 7-4 5-2 9 1 6 4 3 4 1 5h2l-1-7-2-3v-13l4-8 7-5 11-2 7 3 4 5v2l9-5 4-1h7l8 4 4 7v3l3-3 7-12 8-10 11-9 11-5 5-1h7l6 3 5 4 3 6v9l-2 7h2l3-9 5-13 7-11 9-10 10-8 12-5z" fill="#FEFEFD"/>
<path transform="translate(430,102)" d="m0 0 7 1 25 7 29 9 23 11 8 6 2 3v8l-5 13-5 11-6 16-4-1-11-8-19-11-18-8-14-4-12-2-19-1 2-9 2-4 9 1 23 6 7 1v-2l-6-2-10-4-20-5 1-6 9-23z" fill="#FEFEFD"/>
<path transform="translate(385,654)" d="m0 0h3v3h-2v2l-21 14h-3l-1 3-16 10-15 11-36 26-17 12-12 8-17 12-11 8-22 15-15 10-5 4-5 3-2-1 3-10 15-45 8-5 29-13 13-5 23-11 36-16 20-9 19-10 22-12z" fill="#DF2028"/>
<path transform="translate(230,517)" d="m0 0 7 1-1 6-10 7-13 9-5 4-12 16-5 10-5 16-1 5v9l3 9 9 1 11-7 15-15 11-14 10-13 10-14 9-16 4-2 4 8-2 7-18 27-9 12-9 11-12 13-14 11-14 8-11 3-9-1-8-4-8-9-2-6v-18l3-11 7-16 7-11 8-10 10-9 11-7 10-5z" fill="#2A3696"/>
<path transform="translate(613,529)" d="m0 0 3 1-2 6-4 4h-6v2l-7 2v2l-7 3-1 2-5 1-2 4-3 1-1 4-3 6 1 14 5 12 4 9 5 12 3 7 3 9 3 7 2 5 5 15 4 9 1 5-5 1-7-5v-2l-4-1-1-2-3-1-7-8-5-5v-2l-4-2-7-8-5-6-7-6-5-6-5-5-6-5-5-6-7-4-12-2h-7l-2-1-1 2-2 2-6-1 3-4h2l1-3 22-12 38-22 11-6 14-8z" fill="#E02028"/>
<path transform="translate(877,312)" d="m0 0 4 1-4 6-11 13-13 15-7 8h-2l-2 4h-2l-2 4-8 7-13 13-8 7-10 9-11 9-13 11-14 11-18 14-36 26-33 22-23 15-26 16-5 3h-3v2h-4v2l-28 16-11 7-11 6-24 13-17 10-12 7-11 6-18 10-6 3h-5l-1-3h5l2-4h5v-5l24-13 23-13 21-12 16-9 24-14 26-15 17-10 24-15 17-11 25-17 20-14 19-14 13-10 15-12 22-18 10-9 8-7 10-9 17-16 8-8 3-4h2l2-4 5-4 1-2-6 2-36 18-28 13-18 8h-3l2-9 9-2 18-8 16-8 17-8 19-10 16-8 6-2 3-5v-1l-9 1-4 1h-49l-6-1v-1l-41-1v-1l117-1z" fill="#0A15BA"/>
<path transform="translate(727,338)" d="m0 0h9l4 6v8l-6 18-7 11-9 9-7 5-2 4-1 12 1 6 5-1 9-6 7-8 8-13 8-17 5-13 3-3 4 2v7l-5 16-8 16-7 11-8 10-10 9-11 5-4 1h-7l-7-3-5-6-3-9v-7l-8 1-6 5-3 3-4-1-2-6-6 1v-14l3-5 5-4h8l4 5 3 5 4-1 4-6 7-19 8-14 8-9 10-7z" fill="#2A3696"/>
<path transform="translate(846,319)" d="m0 0h17v3l-9 6-21 10-38 19-24 11-6 1-1-5v-8l-5-5-6-1-6 2-2-11-4-6-7-3v-3l-9 1-19 4-12-2-9-3-7-3-13-1-84-1v-1l51-1 96-1z" fill="#DF2028"/>
<path transform="translate(426,377)" d="m0 0h15l5 4 2 4v6l-10 16-9 14-17 28-5 10-6 6-2-3 2-5 1-4 6-11 4-10 14-22 12-19 2-7h-8l-11 3-6 4-8 8-9 11-12 14-11 13-9 11-11 14h-2l-2 4-13 17-10 12-13 18-5 6-4-1-2-4-2-13v-16l3-16 4-12 10-25 1-12-3-7-2-2h-8l-8 5-5 5-7 8-8 13-5 12-1 4v36l-1-2h-3v2h-2l-3-8h2l-2-15v-10l3-12 8-16 10-14 11-11 9-4 8-1 7 2 7 8 1 3v14l-4 12-10 26-3 14v20l4-2 9-12 11-14 9-11 11-14 12-14 11-13 9-11 8-9 9-11 9-9 9-4z" fill="#FEFEFB"/>
<path transform="translate(24,315)" d="m0 0 18 2 165-1v2h67l1-1h67l1 3-196 1h-106v3l5 2 14 9 13 10 19 14 11 8 12 9 17 12 10 8 11 8 19 14 16 12 22 16 15 11 36 27 3 1 3 7v3l-5-1-13-10-15-11-19-14-8-6-38-28-11-8-13-10-17-12-12-9-11-8-16-12-14-10-16-12-14-10-18-13-5-5z" fill="#0F1D9F"/>
<path transform="translate(486,601)" d="m0 0h3l-2 4-11 6-5 7 1 5 14 10 10 6 10 7 15 12 9 7 14 10v2l4 1 12 9 8 5 4 4 15 10 2 2 8 6 11 7 8 6 3 3 9 6v2l4 2 22 16 3 2v2h2v2l5 2 5 3v2l5 2 7 3h6l1-5 3 3 5 16 1 7-3 1-11-8-19-14-12-9-28-20-16-12-11-8-17-12-16-12-28-20-11-8-10-7-30-22-14-10-13-9-5-4 3-4 12-6 10-6z" fill="#DF2028"/>
<path transform="translate(655,366)" d="m0 0h11l5 4 1 9-4 4-7-2h-6l-6 4-7 10-8 16-5 17v12l3 3 5 1 7-3 6-8 3-7 1-5 1-19h1l1 7 4 1 2 6h3l-1 5-8 16-6 9-10 10-8 4-10 1-6-3-7-8-2-1-2 5-12 16-5 6-5 4-5 1v-2h2l1-7 5-3 4-7 9-15 17-36 9-19 8-11 5-5 8-6z" fill="#2A3696"/>
<path transform="translate(46,322)" d="m0 0h10v2h12l8 1 4 6v2h-2l2 6 16 12 11 7 9 6 18 14 7 5v2l5 2 9 7 2 1v2l4 1v2l5 2 5 4 6 4v2l5 2 36 27 19 13v2l4 2 8 5 6 3 3 4 4 2 4 7v7l-6-2-16-12-15-11-12-9-14-10-13-10-11-8-19-14-12-9-11-8-12-9-14-10-13-10-17-12-13-10-14-10-10-7v-2z" fill="#F2281A"/>
<path transform="translate(566,388)" d="m0 0 7 1 4 6 1 5h4l7-6 9-3 6 2 3 5v9l-5 17-9 21-9 19-1 5 5-2-2 4-4 1-1 7 1 1-1 2-9 2-5-3-1-2v-13l6-24 8-20 3-9-9 3-5 7-2-3 1-3-2-1-2 2-3 5-1-4-3-8-3-6v-7l3-6 5-3z" fill="#2A3696"/>
<path transform="translate(450,437)" d="m0 0 9 1 4 4-1 7-4 4-15 5-9 7-9 12-8 14-5 11-4 14v5l5 1 10-11 11-15h3l1-5 3 1 1 6-10 13-8 10-6 7-11 8-3 1h-11l-5-5-2-6 1-13 6-17 10-18 9-11 9-10 13-11 11-7z" fill="#2A3696"/>
<path transform="translate(621,524)" d="m0 0 2 3 27 88 25 81 11 36 10 33 8 26 6 20 1 5-9-6-14-10 2-1 6 3 5 3h3l1 2v-5l-4 2-1-5-6-1-2-3h4l-1-7-5-16-32-104-25-81-14-46-3-10-3-3h4v-2z" fill="#0D1C9E"/>
<path transform="translate(147,575)" d="m0 0h5l-1 5-2 2-29 6-27 5 18 10 12 8 9 7 12 11 9 9 10 15 6 14 3 13v19l-3 14-6 15-7 13-8 11 1 2-5 3-5 6-13 5-4-1 9-8h2l1-3h2l2-4 9-12 8-13 7-17 2-9v-23l-4-14-8-15-8-10-5-6-11-9-12-9-19-11-21-11-6-3 3-2 22-3 41-8z" fill="#0D1C9F"/>
<path transform="translate(466,632)" d="m0 0 5 1 11 8 14 10 16 12 13 9 16 12 13 9 11 8 19 14 14 10 11 8 19 14 14 10 11 8 19 14 20 15 4 4 4 1 2 4 3-1 1 6-16-8-5-2-16-12-14-10-15-11-14-10-16-12-13-9-15-11-18-13-11-8-14-10-16-12-28-20-18-13-5-5-6-8z" fill="#0F1AB2"/>
<path transform="translate(474,16)" d="m0 0h22l16 5 12 7 12 11 8 10 6 10 16 3 12 5 9 6 6 8 3 5 3 12v12l-3 12-4 3 1-14v-13l-3-10-6-8-5-4-12-6-15-4 3 11-3-3-6-11-10-13-1-3h-2l-5-5-8-7-16-8-10-3-6-1h-9l-14 3-11 6-11 7-3-1 7-6 1-3-9-4-4-1h-11l-9 3-7 6-4 5-6 15-1 4h-2l-1-6 3-8 2-1h-7v5l-3 4h-2v2l-3 3-1 3h-2l-1 3 1-8 8-13 9-10 10-7 8-4 7-2h15l8 2 8 3 15-6z" fill="#0813BC"/>
<path transform="translate(509,207)" d="m0 0 4 4 2 10 2 5 3 10 8 26 4 12 3 11 3 7 1 9h2l3 14 4 4 47 1h42l60-1 2-1-4-1h-137l-4 2-2-2-3-1v-2l135-1h192v1l-73 1 3 2h49l7-2h6l1 2-3 5-2 2-3-1 2-3h-17l-118 2h-182l-4-4-8-27-12-38-13-43z" fill="#1F2C9E"/>
<path transform="translate(392,655)" d="m0 0 3 1 1 2-5 5-14 10-16 11-34 24-18 13-16 11-18 13-20 14-23 16-17 12-3 2-5 1-2 2h-5l-2 4-4 1-2-2h2v-2l5-5 10-7 22-15 11-8 19-13 13-9 18-13 19-13 13-10 13-9 11-8 13-8 1-2 6-3 13-9 6-2z" fill="#0C16B8"/>
<path transform="translate(521,152)" d="m0 0h2l1 3v7l-5 13-7 15 1 7 22 71 14 44 1 4h5l-1 2h2l2-2h137l5 2-3 2-68 1h-47l-34-1-5-5-2-9v-5h-2l-2-9-3-7-3-11-4-12-4-13-2-5-2-8-3-10-3-8-1-7-2-4h-2l-5-12-4-5-3-8 5 1 7 4 1-5 8-21z" fill="#0D1C9F"/>
<path transform="translate(812,323)" d="m0 0 9 1-2 1v2l3 1-1 5-12 7-12 5-9 5-7 2-7 3h-5l-6-4-10-1-6 2-2-11-1-4h4l-1-3h2v-3l4-1 3-1v-2l10-1h17l6-1v-1z" fill="#C81A2B"/>
<path transform="translate(358,305)" d="m0 0 1 3-3 10-4 3-14 1-219 1h-75l-1 2-3-3 1-2h106l195-1v-2l-6 1h-61l-1 1h-64l-3-1v-2l-25 1-141 1-10-1v-1l75-1 180-1h63l1 3-2 1h5z" fill="#293597"/>
<path transform="translate(24,315)" d="m0 0 18 2 165-1v2h67l1-1h67l1 3-196 1h-106v3l5 2 14 9 13 10 5 4 1 6-4 1-16-12-14-10-18-13-5-5z" fill="#0717A0"/>
<path transform="translate(877,312)" d="m0 0 4 1-4 6-11 13-13 15-2 1v-2l-5 2-1-4 7-6 1-2-6 2-36 18-28 13-18 8h-3l2-9 9-2 18-8 16-8 17-8 19-10 16-8 6-2 3-5v-1l-9 1-4 1h-49l-6-1v-1l-41-1v-1l117-1z" fill="#0B15B9"/>
<path transform="translate(266,529)" d="m0 0 3 3 2 5-2 7-18 27-9 12-9 11-12 13-14 11-8 5h-4l-1-8 1-3 2 1v-3l11-7 15-15 11-14 10-13 10-14 9-16z" fill="#212E9C"/>
<path transform="translate(479,597)" d="m0 0 3 1-1 3-6 2-1 2h-5l1 2 3 2-14 8-4 2v3l13 9-2 1 7 11-4-2-17-12-4-4-5 1-13 9-17 12-15 11h-3l-1-2-4 2-4 3-3-1 3-1v-2h2v-3l-12 5-2-1 11-6-3-4 46-23 22-12 27-15z" fill="#0D1C9F"/>
<path transform="translate(632,322)" d="m0 0h181l-1 2-22 1v1l-14 1h-20v2l-5 3-2-1-1 6h-5l-5-4-4-1v-3l-9 1-19 4-12-2-9-3-7-3-13-1-84-1v-1z" fill="#E02028"/>
<path transform="translate(147,575)" d="m0 0h5l-1 5-2 2-29 6-27 5 18 10 12 8 9 7 12 11 4 4-1 4-7-2-5-5-13-11-21-13-25-13-6-3 3-2 22-3 41-8z" fill="#0F1DA0"/>
<path transform="translate(754,356)" d="m0 0 4 2v7l-5 16-8 16-7 11-8 10-10 9-11 5-4 1h-7l-7-3-5-6-2-4v-9l1 4 3 1v7l3-1 6 4 11 1v-5l4-2v-3l10-6 8-9 8-13 8-17 5-13z" fill="#0B1A9F"/>
<path transform="translate(591,121)" d="m0 0 2 2 2-1-1 6-8 13-6 7-10 7-10 5-8 3-29 1v-9l-1-6 2-10v-3l1-5-7-2 4-1 4 1h18l10-2-2 4-8 6-2 4v10l3 5v2h9l10-4 10-7 9-9 7-14z" fill="#2A3696"/>
<path transform="translate(414,66)" d="m0 0 4 4 6 11 9 10 10 7 15 7 19 6 6 1-7-8-7-10-3-9 5 5 6 8 11 12 10 8 17 8 3 1v2l11 2-4 1 1 6-3 1-4-5-21-11-16-6-40-12-12-3-2 4-6 2 2-10h-2l-5-11-3-14z" fill="#0E1D9F"/>
<path transform="translate(566,415)" d="m0 0 3 3-2 9-15 30-14 23-10 14-7 6-7 3h-6l-5-4v-4l5-1v2l7 1 1 1 4-2 1-4 6-14 17-28 11-19 6-9 3-6z" fill="#212E9C"/>
<path transform="translate(509,207)" d="m0 0 4 4 2 10 2 5 3 10 8 26 4 12 3 11 3 7 1 9h2l3 14 4 4 47 1h118l129-2 13-1 7-2h6l1 2-3 5-2 2-3-1 2-3h-17l-118 2h-182l-4-4-8-27-12-38-13-43z" fill="#273398"/>
<path transform="translate(426,841)" d="m0 0h7l6 8 5 5v12l1 3h6l1-4 1-13 3-1 2 1v22l-7 1h-8l-6-3-3 10-8 4h-6l1-5 5-1v-28h4v-3l-4 2-1-9z" fill="#FEFEF8"/>
<path transform="translate(423,18)" d="m0 0h15l8 2 8 3 12-5 7 1v2l6 1v1l-14 3-11 6-11 7-3-1 7-6 1-3-9-4-4-1h-11l-9 3-7 6-4 5-6 15-1 4h-2l-1-6 3-8 2-1h-7v5l-3 4h-2v2l-3 3-1 3h-2l-1 3 1-8 8-13 9-10 10-7 8-4z" fill="#0E1CA3"/>
<path transform="translate(178,425)" d="m0 0 5 1 16 12 11 8 15 11 36 27 3 1 3 7v3l-5-1-13-10-15-11-19-14-8-6-19-14-4-3-1-5-5-1-3-2v-2z" fill="#0E1CA1"/>
<path transform="translate(607,734)" d="m0 0 5 1 13 10 17 12 11 8 19 14 20 15 4 4 4 1 2 4 3-1 1 6-16-8-5-2-16-12-14-10-15-11-14-10-5-4-1-4-5-2v-2h-2l-5-5z" fill="#0B16B8"/>
<path transform="translate(655,366)" d="m0 0h11l5 4 1 9-4 4-7-2h-6l-6 4-7 10-3 5-3 1-1 2h-2v2l-5-2-2 1-1-3 2-3 3-6 4-9 2-5 11-8z" fill="#212E9D"/>
<path transform="translate(364,455)" d="m0 0 1 2 2 1-5 5-2 5-12 15-12 16-10 13-9 12-4 2-3-5 6-11 16-21 10-12 11-15 5-3z" fill="#1F2C9C"/>
<path transform="translate(557,316)" d="m0 0h138l5 2-3 2-68 1h-47l-27-1z" fill="#0515A1"/>
<path transform="translate(568,841)" d="m0 0 6 1 4 4v4l7 2 3-1h9l2 5-1 1h-8l-4 2v7l3 3h10l-1 5-7 2-6-2-4-3v-2l-5-1v4h-2v3h-5l-1-1v-22l3-1 2 1-1-4-4-1-1-5z" fill="#FEFEF8"/>
<path transform="translate(655,402)" d="m0 0h1l1 7 4 1 2 6h3l-1 5-8 16-6 9-10 10-8 4-10 1-3-1-3-5 8-1 3 1v-2l5-4h2v-2l-2-1 7-1 5-5 6-9 3-10z" fill="#1E2B9D"/>
<path transform="translate(380,649)" d="m0 0h5l1 3-11 6-3 3-14 8-30 15-13 6h-8l4-2h2l2-7 15-7 19-9 16-9z" fill="#0B15BA"/>
<path transform="translate(684,313)" d="m0 0h192v1l-133 1h-28l-39 1-118 1-4 2-2-2-3-1v-2z" fill="#2A3696"/>
<path transform="translate(549,60)" d="m0 0h9l16 5 9 5 6 5 7 11 3 12v12l-3 12-4 3 1-14v-13l-3-10-6-8-5-4-12-6-12-3v-2h-4z" fill="#0B16B8"/>
<path transform="translate(234,851)" d="m0 0h9l6 5 1 2v11l-5 5-8 2-7-3-3-4-1-9 3-6z" fill="#0913BC"/>
<path transform="translate(84,592)" d="m0 0 12 3 11 6 15 9 10 8 12 11 4 4-1 4-7-2-5-5-13-11-21-13-17-9v-4z" fill="#0A15BA"/>
<path transform="translate(210,851)" d="m0 0 8 1 3 7v16h-5l-2-17-5-1-3 3-1 15-5-1-1-17-7 1-1 17h-6v-22l1-1h17l4 2v-2z" fill="#0D18B5"/>
<path transform="translate(281,851)" d="m0 0h7l5 3 2 5-1 11-4 5-8 1-5-3-4-5-1-9 1-2h2l2-4z" fill="#0914BA"/>
<path transform="translate(479,597)" d="m0 0 3 1-1 3-6 2-1 2h-5l1 2 3 2-14 8-4 2v3l13 9-2 1 7 11-4-2-17-12-4-4-5 1h-3l1-3-2-1 1-1-3-1 24-13z" fill="#101F9F"/>
<path transform="translate(636,851)" d="m0 0h7l5 4 1 3v12l-5 5h-10l-5-5-2-4v-7l3-5z" fill="#0A15B9"/>
<path transform="translate(617,527)" d="m0 0 1 3 1 6h2l2 9 2 2 1 8 3 5 2 10 2 4 3 12 3 10 7 23 8 24 1 5 5 16 4 14 3 10 2 5 1 9h2l4 15 4 13 1 2v7l-2-3-22-71-27-88-12-39-3-8-2-2z" fill="#263299"/>
<path transform="translate(385,654)" d="m0 0h3v3h-2v2l-21 14h-3l-1 3-6 4-6 1-5 2-12 5-6-1v-3l17-8 33-18z" fill="#F1271A"/>
<path transform="translate(733,405)" d="m0 0h2v3l2 1-7 9-10 9-11 5-4 1h-7l-7-3-5-6-2-4v-9l1 4 3 1v7l3-1 6 4 11 1v-5l4-2v-3l7-3v2h5v-3h3l1-2 3-2v3h2v-4l-2-1z" fill="#1E2B9D"/>
<path transform="translate(466,85)" d="m0 0 5 5 6 8 11 12 10 8 17 8 3 1v2l11 2-4 1 1 6-3 1-4-5-21-11-16-6-17-5-2-3-7-3 2-1 19 6 6 1-7-8-7-10z" fill="#0F1CA7"/>
<path transform="translate(230,517)" d="m0 0 7 1-1 6-10 7-8 5-6-1-4 1-5-3v-2l-2-1h2l2-4 6-4z" fill="#202D9D"/>
<path transform="translate(423,98)" d="m0 0h1v6l-2 4 6-2-3 9-3-1-3 4-1 3-3-1-1 8-2 5h-2l2-11-12-6-10-8-4-4v-2h2l7 7 3-3 11-1 8 2v2l3-2z" fill="#212E9C"/>
<path transform="translate(313,682)" d="m0 0 2 1-2 5-2 1 2 2-21 9-15 7-11 5h-6l3-1-1-4h3v-3l33-15z" fill="#101FA1"/>
<path transform="translate(566,415)" d="m0 0 3 3-2 9-15 30-5 7h-2l1-4 1-2h2v-3l-4 2-3 7-2-1 3-9 3-5 4-9 9-16 4-5 1-3z" fill="#1C2A9D"/>
<path transform="translate(541,839)" d="m0 0h5v13l3-1h8l3 3 2 7v13l-5 1-1-1-1-14-2-3-6-1-1 19h-5l-1-1v-32z" fill="#0814B9"/>
<path transform="translate(862,315)" d="m0 0h6l1 2-3 5-2 2-3-1 2-3h-17l-118 2h-80l2-2h63l129-2 13-1z" fill="#2A3696"/>
<path transform="translate(368,851)" d="m0 0 7 1 3 3 1 3v16l-5 1h-12l-3-3v-8l4-3 4-1h7l-2-3h-8l-3 1 1-5z" fill="#0813BC"/>
<path transform="translate(333,839)" d="m0 0h5l1 5-1 8 3-1h8l3 3 1 4 1 15-1 2h-5l-2-17-7-2-1 19-2 1-3-1-1-13z" fill="#0C1B9E"/>
<path transform="translate(604,838)" d="m0 0 4 2 1 20 8-8h6l-1 4-5 5 2 6 5 6v2h-6l-6-7-4-4v11h-5l-1-32z" fill="#0B1AA3"/>
<path transform="translate(547,840)" d="m0 0h2v2l4 1 5 2h7l2-5 1 2 1 5h4v5h-5v21l-6 2-1-14-3-8-1-1h-11z" fill="#FEFEF9"/>
<path transform="translate(364,455)" d="m0 0 1 2 2 1-5 5-2 5-12 15-10 13h-3v-6l2-4 1-4 10-13 5-7 5-3z" fill="#0A15BB"/>
<path transform="translate(78,350)" d="m0 0 4 2 19 13 11 9 5 4h-2l3 7 2 3-4-2-11-8-16-12-13-9 2-4z" fill="#0F1E9D"/>
<path transform="translate(223,458)" d="m0 0 5 1 9 7 24 18 3 1 3 7v3l-5-1-13-10-9-7-4-6-5-2-2-2-2-1v-3l-6-1 1-3z" fill="#0E19B4"/>
<path transform="translate(314,409)" d="m0 0 5 2 6 1 2 6v16h-3l-4 10-3 1-1 7-4 7-4 11-2 10-2 3v-10l5-16 10-25 1-12-3-7z" fill="#FEFEF9"/>
<path transform="translate(234,555)" d="m0 0h6l-1 4-6 5-32 8-3-1 2-6 5-3z" fill="#0C16B8"/>
<path transform="translate(396,851)" d="m0 0 7 1 2 3 1 6v14h-6l-1-17-5-1-2 1-1 17h-5l-1-2v-19l3-2z" fill="#0F1CAD"/>
<path transform="translate(438,491)" d="m0 0 3 1 1 6-10 13-8 10-6 7-2 1h-6l-1-2 7-8 11-13 7-10h3z" fill="#0C17B6"/>
<path transform="translate(410,23)" d="m0 0 2 1-3 5 2 1-7 8-6 15-1 4h-2l-1-6 3-8 2-1h-7v5l-3 4h-2v2l-3 3-1 3h-2l-1 3 1-8 8-13 9-10 10-7z" fill="#0D1BA0"/>
<path transform="translate(666,851)" d="m0 0 7 1 3 4 1 15-1 4h-5l-1-15-2-3h-6l-1 18h-5l-1-16 2-7z" fill="#0B16B8"/>
<path transform="translate(601,848)" d="m0 0 2 4v22l-5 1 1-6-3 1h-7l-4-4v-7l5-3h8l1-7z" fill="#FEFEFC"/>
<path transform="translate(454,851)" d="m0 0 4 1v22l-7 1h-8l-5-5v-17l5-1 1 6v8l1 3h6l1-4 1-13z" fill="#0A15B8"/>
<path transform="translate(759,314)" d="m0 0h108v1l-12 3h-49l-6-1v-1l-41-1z" fill="#0413A9"/>
<path transform="translate(275,317)" d="m0 0h67l1 3h-132v-1l63-1z" fill="#0515A1"/>
<path transform="translate(605,444)" d="m0 0h2l1 7-13 18-6 7-5 4-5 1v-2h2l1-7 5-3 4-7 9-15 5-1z" fill="#0C1BA1"/>
<path transform="translate(585,717)" d="m0 0 5 2 15 11 4 4v4h2l2 5h2v2l5 1 1 4-5-2-12-9-18-13-8-6v-1h5l2 3v-4z" fill="#12219D"/>
<path transform="translate(588,851)" d="m0 0h9l2 5-1 1h-8l-4 2v7l3 3h10l-1 5-7 2-6-2-5-5-1-2v-9l4-5z" fill="#0B16B8"/>
<path transform="translate(470,851)" d="m0 0h7l3 2v4l-10-1 2 4 8 3 1 2v7l-3 3-9 1-3-1-2-6h3l2 1h6v-4l-9-2-2-6 3-6z" fill="#0E1CA3"/>
<path transform="translate(526,851)" d="m0 0h8l3 2-1 5-9-1-3 3v7l2 2h10l-1 5-1 1h-9l-5-3-3-4v-9l4-6z" fill="#0D18B6"/>
<path transform="translate(725,351)" d="m0 0 4 1 1 1-1 9-5 9-5 6-3 2h-3l-1-5 5-12 6-9z" fill="#FEFEFD"/>
<path transform="translate(463,162)" d="m0 0 5 1 20 11 11 7-2 4 2 1-1 3-10-7-17-10-12-6 4-3z" fill="#101F9F"/>
<path transform="translate(359,849)" d="m0 0 6 1-3 4-1 4 3-2h8l2 4-11 2-3 2-1 8-5 3-1-4-1-13-2-7h3z" fill="#FEFEF8"/>
<path transform="translate(551,127)" d="m0 0 3 1-5 5-5 4-1 2-12 2h-6l-1-6 1-4-7-2 4-1 4 1h18z" fill="#1E2C9D"/>
<path transform="translate(318,844)" d="m0 0 3 2v5l6 1 1 4-6 1v12l6 2v4h-9l-3-3-1-15-4-1 1-4 3-1z" fill="#0B17B3"/>
<path transform="translate(549,698)" d="m0 0 6 1 1 3 3 1 1-2-1-3 5 2 13 10 8 6 2 5-2 2-2-4h-7l-16-12-11-8z" fill="#0E19B3"/>
<path transform="translate(731,354)" d="m0 0h3v5h2l-1 9-6 10-2 3h-6l-1 4h-2l-3-4 9-11 4-8z" fill="#0C1B9F"/>
<path transform="translate(583,78)" d="m0 0 6 1 4 2 3 5 3 12v12l-3 12-4 3 1-14v-13l-3-10-6-8z" fill="#12219D"/>
<path transform="translate(489,845)" d="m0 0 4 1 1 3-1 2 6 1 1 4-6 1v10l3 3 4 2-1 3h-9l-3-6-1-12-3-2 2-4z" fill="#0B16B8"/>
<path transform="translate(147,575)" d="m0 0h5l-1 5-2 2-23 5h-6l-3-3 3-4z" fill="#0B16B9"/>
<path transform="translate(426,852)" d="m0 0h5l1 1v29l-6 4h-6l1-5 5-1z" fill="#0C17B7"/>
<path transform="translate(488,844)" d="m0 0 1 2-2 5-3 4 4 2v9l-2 5-5 3-1-11-9-3-1-4h7l3 1v-5l2-1 2-5z" fill="#FEFEFB"/>
<path transform="translate(448,464)" d="m0 0h4l-1 4-5 5-3 6v3h-2l1 6 4 2-1 4-3 3-2-5h-2l-1 4h-2l1-20 5-7z" fill="#202D9C"/>
<path transform="translate(485,111)" d="m0 0 7 4 16 8 10 4v2l11 2-4 1 1 6-3 1-4-5-21-11-13-5-2-4z" fill="#0A19A1"/>
<path transform="translate(508,581)" d="m0 0h2l-1 4-7 3-8 8-6 5-13 7h-5l-1-3h5l2-4h5v-5l24-13z" fill="#0B16B9"/>
<path transform="translate(848,309)" d="m0 0h26l2 3h-122v-1l68-1z" fill="#FEFEF8"/>
<path transform="translate(416,153)" d="m0 0h20l17 4 10 4 1 4-8-1-13-4-10-3-17-1z" fill="#0A15B8"/>
<path transform="translate(846,319)" d="m0 0h17v3l-2-1h-13l-12 1h-108v-1z" fill="#C81A2C"/>
<path transform="translate(547,417)" d="m0 0 2 3v4h4l1-7 6 3-1 6-4 6h-5l-6 5-2 5h-1l1-8 2-8z" fill="#FEFEF8"/>
<path transform="translate(291,415)" d="m0 0 1 4-2 6-9 13-6 1-2 6-3 3 1-5 4-10 8-11z" fill="#FEFEF9"/>
<path transform="translate(536,41)" d="m0 0 6 5 8 13 1 6 4 1h-3l3 11-3-3-6-11-10-13-1-3h-2l-1-3z" fill="#101F9D"/>
<path transform="translate(266,851)" d="m0 0 5 2v3l-8 3-1 4v12h-5l-1-1v-21l1-1z" fill="#111F9E"/>
<path transform="translate(605,381)" d="m0 0 9 1 7 2 1 3-7 12h-2l-5-10-6-4v-3z" fill="#DE2028"/>
<path transform="translate(333,839)" d="m0 0h5l1 5-2 19 1 12-2 1-3-1-1-13z" fill="#0712BA"/>
<path transform="translate(389,526)" d="m0 0 7 4h6l2 1 1-3h3v-2l2 1v1l5 1-5 5-6 3h-11l-5-5v-5z" fill="#202D9D"/>
<path transform="translate(385,654)" d="m0 0h3v3h-2v2l-21 14h-3l-1 3-6 4h-2l1-4h4l2-5 5-2 2-4 2-1-1-2z" fill="#DC1F28"/>
<path transform="translate(320,844)" d="m0 0 9 4 1-2 2 6v6h-2l-2 9-2 3-5-1v-12l5-1h2l-1-3-6-2z" fill="#FEFEF9"/>
<path transform="translate(423,18)" d="m0 0h15l7 2v2l-4 1-17 1-9 3-3 2h-3l2-5 3-3z" fill="#0B16B9"/>
<path transform="translate(452,851)" d="m0 0h1v14l-2 5h-6l-2-4v-14z" fill="#FEFEF9"/>
<path transform="translate(730,339)" d="m0 0 5 1 4 2 1 2v8l-3 10-1-3h-2v-5l-4 1-1-8v-4l-2-1z" fill="#1F2D9D"/>
<path transform="translate(418,634)" d="m0 0 2 1-10 8-12 8-8 7-4 3-3-1 3-1v-2h2v-3l-12 5-2-1 16-9 17-8 7-4z" fill="#293597"/>
<path transform="translate(281,856)" d="m0 0h6l3 2 1 3v7l-4 3-6-1-3-3v-8z" fill="#273397"/>
<path transform="translate(867,327)" d="m0 0 3 1-12 13-6 7-1-2-5 2-1-4 7-6 1-2-2-2 7-3 3 1v-2l5-2z" fill="#0D1C9F"/>
<path transform="translate(862,315)" d="m0 0h6l1 2-3 5-2 2-3-1 2-3h-17l-49 1h-21l2-2 64-1 13-1z" fill="#2B3796"/>
<path transform="translate(371,848)" d="m0 0h5l1 4 6 2 2-5 5 1 1 2-5 2-1 19-1-2h-3l-1 3-1-1-1-15-3-5-9-3v-1z" fill="#FEFEF8"/>
<path transform="translate(629,852)" d="m0 0 3 1-3 3-3 15-1 1-1 4-3-5-5-8 2-5 5-5z" fill="#FEFEF8"/>
<path transform="translate(580,470)" d="m0 0 4 2h-2l-1 7 1 1-1 2-9 2-5-3 1-6-1-2 5-2h6z" fill="#212E9C"/>
<path transform="translate(394,856)" d="m0 0 5 1 1 1v14l-3 4-5-1-1-7v-10z" fill="#FEFEF9"/>
<path transform="translate(465,848)" d="m0 0 11 1 1 2-10 1-2 7 1 4 9 3 1 4-1 1h-6l-4-4-3-5-3-1v-9z" fill="#FEFEF9"/>
<path transform="translate(236,856)" d="m0 0 7 1 2 4v6l-5 3h-5l-3-3v-8z" fill="#FEFEF8"/>
<path transform="translate(198,770)" d="m0 0h3v2l3-1 2 2-1 5-1 3-5 1-1 4-1 2-4 1-1-7 3-10z" fill="#F22719"/>
<path transform="translate(261,607)" d="m0 0h2l1 4 5 1 4 2 1 2h2v-2l8-2-1 4-10 5h-7l-5-5-1-5z" fill="#1E2B9C"/>
<path transform="translate(210,851)" d="m0 0 8 1 3 7v16h-5l-2-17-6-3z" fill="#0A16B7"/>
<path transform="translate(422,135)" d="m0 0 9 1 15 5 8 4v2h-7l-18-5-5-3v-2h-2z" fill="#0E19B6"/>
<path transform="translate(655,402)" d="m0 0h1l1 7 4 1 2 6h3l-1 5-3 6-4-1-1-2h-2l-1 2z" fill="#212E9C"/>
<path transform="translate(433,95)" d="m0 0 5 2 3 2 8 2 7 3 3 3 10 3v1h-7l-25-7-1-2-3-1-1-3z" fill="#0C17B6"/>
<path transform="translate(358,624)" d="m0 0h6l2 2-1 4-5 5-4 2h-11l-4-2 5-1 7-1v-2l2-2 1-4z" fill="#202D9D"/>
<path transform="translate(339,856)" d="m0 0h6l2 2v16h-5l-3 1z" fill="#FEFEF8"/>
<path transform="translate(194,856)" d="m0 0h5l1 5-1 11-4 1h-2l-1 2-1-3v-14z" fill="#FEFEF8"/>
<path transform="translate(383,431)" d="m0 0 1 4-8 10-4 6-3 5-4 1h-2l-3 1 2-4 6-7h3v-2l2-1 3-7z" fill="#202D9E"/>
<path transform="translate(229,849)" d="m0 0 4 2-5 6-1 8-1 4-3 6h-1l-2-16-2-7 4 1z" fill="#FEFEF8"/>
<path transform="translate(615,418)" d="m0 0h2l-2 9h-2l-1 6-1 4h-2v11l-2-1v-3l-4 4-2-1 2-6 10-22z" fill="#212E9C"/>
<path transform="translate(209,856)" d="m0 0 5 1 1 1v11l-5 2-2 4h-2v-17z" fill="#FEFEF8"/>
<path transform="translate(570,851)" d="m0 0 4 2v22h-5l-1-1v-22z" fill="#0914B9"/>
<path transform="translate(422,437)" d="m0 0h2l-1 5v3l-2 1-3 5-9 9-2-1 1-5 6-10 3-1z" fill="#E12128"/>
<path transform="translate(636,851)" d="m0 0h7l5 4 1 3v12l-2 2-1-5v-3l-4 1h-4l-1-4 6-1-1-3-6-1 1-3z" fill="#101EA2"/>
<path transform="translate(313,682)" d="m0 0 2 1-2 5-2 1 2 2-7 3-7 2-5-1-1-2 3-2 4-3z" fill="#0F1DA3"/>
<path transform="translate(78,350)" d="m0 0 4 2 13 9v5h-3l-1-3h-2l-1 2-12-8 2-4z" fill="#0F1DA2"/>
<path transform="translate(635,856)" d="m0 0h7l2 4-1 1h-6l2 4 4-2 4 1-1 4-5 3-5-1-2-2v-11z" fill="#FEFEF9"/>
<path transform="translate(657,850)" d="m0 0h6l-6 3-2 19-1-2h-2l-1-2-2 4-1-2v-16z" fill="#FEFEF8"/>
<path transform="translate(366,460)" d="m0 0h2l-3 9-6 12-1-3-5 2-4 4v-3l10-13z" fill="#FEFEF9"/>
<path transform="translate(671,358)" d="m0 0 5 1 8 12-2 7v3l-3 7h-2l1-7v-9l-4-7-6-4v-2z" fill="#DB1F28"/>
<path transform="translate(178,425)" d="m0 0 5 1 12 9-2 1v3l2-1 1 3-1 2-4-2-7-5-1-5-5-1-3-2v-2z" fill="#12209E"/>
<path transform="translate(464,428)" d="m0 0h8l3 3v7l-3 6-2-1-4-8-6-4v-2z" fill="#F0261C"/>
<path transform="translate(475,863)" d="m0 0h5l1 2v7l-3 3-9 1-3-1-2-6h3l2 1h6z" fill="#0C18B4"/>
<path transform="translate(281,851)" d="m0 0h7l5 3 2 5-1 11-1-2h-2l-1-10-9-2-2-2-4 3 2-4zm-8 6 2 1z" fill="#121FA3"/>
<path transform="translate(590,856)" d="m0 0 5 2-2 3 3 4v5h-7l-4-4v-7z" fill="#FEFEF8"/>
<path transform="translate(519,861)" d="m0 0 2 1v3h2l3 4h10l-1 5-1 1h-9l-5-3-2-2z" fill="#0A15B8"/>
<path transform="translate(857,341)" d="m0 0 2 1-5 7h-2l-2 4-10 10-5 6-8 7-10 9v-3l19-19 7-6 1-2h2l2-4 8-8z" fill="#FEFEF9"/>
<path transform="translate(547,856)" d="m0 0h6l2 2v7l-5 5-2 5-2-3v-14z" fill="#FEFEF8"/>
<path transform="translate(402,852)" d="m0 0 3 3 1 6v14h-6v-17l2-4z" fill="#17259B"/>
<path transform="translate(245,851)" d="m0 0 3 1 1 2 4-1h3v15h-2l-5 5-2-1 2-3v-11l-4-5z" fill="#FEFEF8"/>
<path transform="translate(470,510)" d="m0 0h2l-1 5-4 5-3 1h-7l-1-1v-6l10-2h3z" fill="#1D2A9D"/>
<path transform="translate(410,150)" d="m0 0 1 2h19v1h-14v3h18l10 3 15 5-4 1-8-3-20-4h-16l-3 2z" fill="#273498"/>
<path transform="translate(368,851)" d="m0 0 7 1 3 3 1 3v16l-4-1h3l-2-8v-6l-1-2h-11l-3 1 1-5z" fill="#0E19B7"/>
<path transform="translate(536,401)" d="m0 0h10l4 10 2 3-1 5h-2l-4-8-6-4-6-2z" fill="#E02027"/>
<path transform="translate(558,853)" d="m0 0 2 1 2 7v13l-5 1-1-1-1-16 2-1z" fill="#14239C"/>
<path transform="translate(276,850)" d="m0 0 4 1-5 6h-2l-1 7-6 2-4 3v-10l7-3h3v-2h2z" fill="#FEFEF8"/>
<path transform="translate(585,717)" d="m0 0 5 2 9 7h-3l-4-2 4 5 4 4v2l-4-2-14-10-4-4h5l2 3v-4z" fill="#14229D"/>
<path transform="translate(686,782)" d="m0 0 7 2 3 4 1 7-3 1-10-7 1-3z" fill="#EB251D"/>
<path transform="translate(608,839)" d="m0 0 3 2v4h2l5 6-5 6-2 3h-2l-1-5z" fill="#FEFEF9"/>
<path transform="translate(158,736)" d="m0 0h2v7l4 4-12 5-5 1 4-7z" fill="#FEFEF9"/>
<path transform="translate(714,380)" d="m0 0 2 1 2 4 2-2v-3h5v3l-7 7-3 2h-4l-2-5h2l1-6z" fill="#212E9D"/>
<path transform="translate(595,96)" d="m0 0 4 2v12l-3 12-4 3v-7l2-6z" fill="#0C17B7"/>
<path transform="translate(541,854)" d="m0 0h1l1 6 2-4h2l-1 19h-5l-1-1v-10z" fill="#15239C"/>
<path transform="translate(681,739)" d="m0 0 3 4 3 10 4 13 3 9v6l3 1v5l-2 1-5-16-9-29z" fill="#263399"/>
<path transform="translate(424,513)" d="m0 0 3 3-2 4-7 8-2 1h-6l-1-2 1-2 5-2z" fill="#0A19A0"/>
<path transform="translate(435,450)" d="m0 0h8v5l-3 2h-3l-1 3-4 3-4-2 2-5 2-3h2z" fill="#202D9D"/>
<path transform="translate(439,852)" d="m0 0h4l1 6v10l-2-1v4l-3 1-1-2v-17z" fill="#0F1E9E"/>
<path transform="translate(169,417)" d="m0 0 4 2 7 5-1 3-4-1v2l4 2 4 1 1 4-4-2-15-11-3-3h5l1 3 3 1z" fill="#15239E"/>
<path transform="translate(659,857)" d="m0 0h2v18h-5l-1-16 2-1v2h2z" fill="#0F1DA4"/>
<path transform="translate(360,855)" d="m0 0 1 3 3-2h8l2 4-11 2-3 1-5-2-1-5 6 1z" fill="#FEFEFA"/>
<path transform="translate(576,378)" d="m0 0 9 2 1 5-2 4-5-2-5-4-4-2h2v-2z" fill="#DF2028"/>
<path transform="translate(610,861)" d="m0 0 4 1 2-1 6 10 2 4h-6l-6-7-2-3z" fill="#0A16B3"/>
<path transform="translate(501,855)" d="m0 0 1 2-2 8-1 2h-2l1 3-4-1-1-2v-10l5-1z" fill="#FEFEF9"/>
<path transform="translate(486,421)" d="m0 0 4 2-3 5-4 3-3 3-4 9-2-1 1-6 5-10z" fill="#FEFEF9"/>
<path transform="translate(677,861)" d="m0 0 2 2v3h2v2l6-1 2 1 1 6-5 1-3-3-5 2-1-6z" fill="#FEFEF8"/>
<path transform="translate(508,581)" d="m0 0h2l-1 4-7 3-4 4-7 3-4 2h-6l5-4z" fill="#0E1D9E"/>
<path transform="translate(387,418)" d="m0 0h3l-2 4-9 10-4 4-1-1v-5h2l1-4 5-5z" fill="#FEFEFD"/>
<path transform="translate(341,851)" d="m0 0h8l1 1v5l-4 1-7-2-1 16h-1l-1-12 2-8z" fill="#0A14BA"/>
<path transform="translate(544,689)" d="m0 0 5 2 12 9 1 2-6 1-2-3-8-3-2-5z" fill="#040FBE"/>
<path transform="translate(485,111)" d="m0 0 7 4 12 6-1 3-10-3-8-3-2-4z" fill="#111EA7"/>
<path transform="translate(466,85)" d="m0 0 5 5 6 8 6 7v3l-4-1-7-8-6-12z" fill="#12209D"/>
<path transform="translate(218,453)" d="m0 0 5 2 2 3-1 2-1 1 4 2 2 3 2 1v2l5 1 4 6-4-2-6-4-14-10 1-3 3-1z" fill="#15239C"/>
<path transform="translate(617,852)" d="m0 0h6l-1 4-8 7-4-2v3h-2v-9h1v5l3-3z" fill="#16249E"/>
<path transform="translate(637,369)" d="m0 0h2l-1 3-5 4-7 9-7 12h-2l1-5 8-12 8-9z" fill="#FEFEFA"/>
<path transform="translate(474,16)" d="m0 0h22l16 5 2 2-6-1-11-3-6-1v2h-7l-4-2-6-1z" fill="#101F9E"/>
<path transform="translate(141,754)" d="m0 0 3 1-2 4-5 5-5 2h-5l6-7 5-3z" fill="#09189F"/>
<path transform="translate(374,859)" d="m0 0 1 2-2 3-7 1-1 5h-5l-1 2v-8l4-3z" fill="#12209F"/>
<path transform="translate(662,856)" d="m0 0h6l2 2-1 3-4 4-2 10-2-3v-15z" fill="#FEFEF8"/>
<path transform="translate(234,851)" d="m0 0h9l3 2v6l-5-2-9 1-1-4z" fill="#0813BD"/>
<path transform="translate(514,458)" d="m0 0 2 2 1 6-4 2v2l-5 5-2 4-1-2 2-8 4-9z" fill="#202D9C"/>
<path transform="translate(458,853)" d="m0 0h1l1 5 4 5 1 3 2 1h-2v2l-5 5h-2z" fill="#FEFEFC"/>
<path transform="translate(536,565)" d="m0 0 2 1-3 3-2 3h-2l-8 5-5 3-1 1h-7l5-4 20-11z" fill="#101F9D"/>
<path transform="translate(862,315)" d="m0 0h6l1 2-3 5-2 2-3-1 2-3h-23l2-2 13-1z" fill="#273398"/>
<path transform="translate(688,799)" d="m0 0 5 2 7 3 4 1 2 2 2-2 3 8-1 3-13-10-9-6z" fill="#101F9D"/>
<path transform="translate(472,100)" d="m0 0h2l7 8 2 4-9-1-4-2z" fill="#FEFEF9"/>
<path transform="translate(468,444)" d="m0 0h1v7l-6 7h-2l-1-8 2-4z" fill="#FEFEF8"/>
<path transform="translate(97,365)" d="m0 0 5 1 9 7v6h-3l-3-4-2-2-4-2-2-3z" fill="#0A14BA"/>
<path transform="translate(607,734)" d="m0 0 5 1 12 9-2 2-7-1v-2h-2l-5-5z" fill="#0D18B6"/>
<path transform="translate(669,369)" d="m0 0 2 1 1 9-4 4-7-2 2-1 2-5-1-2 4 2z" fill="#2A3696"/>
<path transform="translate(295,316)" d="m0 0h55l-2 2 1 2h-6l-1-3-6 1-41-1z" fill="#202D9E"/>
<path transform="translate(390,42)" d="m0 0 2 1-1 5-2 3h-2v2l-3 3-1 3h-2l-1 3 1-8 6-10z" fill="#0B1B9F"/>
<path transform="translate(279,863)" d="m0 0h4v3l5-3 3 1-1 5-3 2-6-1-2-2z" fill="#FEFEFA"/>
<path transform="translate(398,487)" d="m0 0h2l-1 7h-2l-1 7-2 1-2 7-2 1 1-9z" fill="#202D9C"/>
<path transform="translate(588,467)" d="m0 0h2l1 6-7 7-5 1v-2h2l1-7 5-3z" fill="#0917A8"/>
<path transform="translate(494,658)" d="m0 0 5 1v2l4 1 2 1v2l5 2 2 3 5 1 6 7h-3l-11-8-14-10z" fill="#19279B"/>
<path transform="translate(223,458)" d="m0 0 5 1 6 5 2 5-2 1-3-1-2-2-2-1v-3l-6-1 1-3z" fill="#0914BA"/>
<path transform="translate(604,838)" d="m0 0 4 2v12h-5l-1-9z" fill="#0611BE"/>
<path transform="translate(440,620)" d="m0 0 2 2-3 7-5-1-3 2-4-1 5-4 3-4z" fill="#0511BC"/>
<path transform="translate(279,569)" d="m0 0h2l-2 11-4 8-5 5 1-6z" fill="#23309B"/>
<path transform="translate(230,517)" d="m0 0 7 1-1 6-3 2h-3v-6l-8 1 3-1v-2z" fill="#12209D"/>
<path transform="translate(338,838)" d="m0 0 3 3v2l4 1 1 5-5 3h-3z" fill="#FEFEF9"/>
<path transform="translate(507,494)" d="m0 0 1 2 7 1v4l-6 1-5-2-1-5z" fill="#202D9D"/>
<path transform="translate(266,851)" d="m0 0 5 2v3l-8 3h-3l-2-6z" fill="#0A15B9"/>
<path transform="translate(218,462)" d="m0 0 5 2 11 8 13 10-1 2-6-5-5-3-10-7v-2l-4-1z" fill="#FEFEFA"/>
<path transform="translate(657,423)" d="m0 0 1 3 3-1-1 7-5 2-3-1 1-7h2v-2z" fill="#0B1A9F"/>
<path transform="translate(236,856)" d="m0 0 7 1 2 4v6h-3v-2l-3-1-4-3v-2l4-1z" fill="#FEFEFD"/>
<path transform="translate(549,851)" d="m0 0h8l1 1-1 7-4-2-6-1-1-4z" fill="#0B16B8"/>
<path transform="translate(415,467)" d="m0 0 4 2h-2l-1 4-3 5-7-1 1-4h3l1-3z" fill="#202D9D"/>
<path transform="translate(231,852)" d="m0 0 2 1-1 2 1 4-1 7-3-2-1 5-2-4 1-8z" fill="#111FA1"/>
<path transform="translate(126,612)" d="m0 0 9 6 7 7 6 5 5 6-1 2-16-16-10-8z" fill="#FEFEFA"/>
<path transform="translate(733,405)" d="m0 0h2v3l2 1-7 9-2 1 1-5-3 3-2-1v-3h3l1-2 3-2v3h2v-4l-2-1z" fill="#222E9C"/>
<path transform="translate(526,260)" d="m0 0 3 4 3 10 4 15v5l-2-3-8-26z" fill="#263299"/>
<path transform="translate(416,153)" d="m0 0h20v2h-3v2l-17-1z" fill="#0511BC"/>
<path transform="translate(392,41)" d="m0 0h8l-1 2h-2l-2 8v7l-2-2-1-6h-2l1-8z" fill="#202D9E"/>
<path transform="translate(360,448)" d="m0 0h5l-4 6-6 8-2-1 1-6 4-5h2z" fill="#FEFEFD"/>
<path transform="translate(190,784)" d="m0 0 1 3-2 7 6-3 2 1-3 1v2l-8 6h-2l1-5 4-10z" fill="#273498"/>
<path transform="translate(372,863)" d="m0 0 2 2-1 5-8 1-1-5 2-2z" fill="#FEFEF9"/>
<path transform="translate(601,848)" d="m0 0 2 4v15h-3v-8l-2-5 1-5z" fill="#FEFEF8"/>
<path transform="translate(418,634)" d="m0 0 2 1-10 8-8 5-5-1 4-3 10-6 6-3z" fill="#232F9B"/>
<path transform="translate(111,374)" d="m0 0 6 3-2 1 3 7 2 3-4-2-10-7 2-1 3 1-1-3z" fill="#14229D"/>
<path transform="translate(352,504)" d="m0 0h1v6l-5 10-2 6h-1l1-10 3-9h2z" fill="#222F9B"/>
<path transform="translate(178,425)" d="m0 0 5 1 4 3-1 6h-2l-1-4-5-1-3-2v-2z" fill="#0814B8"/>
<path transform="translate(41,320)" d="m0 0h13l11 1-1 2h-20l-1 2-3-3z" fill="#273498"/>
<path transform="translate(643,863)" d="m0 0 4 1-1 4-5 3-5-1 2-1v-2l-2-1 2-2h4z" fill="#FEFEFD"/>
<path transform="translate(375,853)" d="m0 0 3 2 1 3v16l-4-1h3l-2-8v-6l-1-2-4-1 1-2z" fill="#11209D"/>
<path transform="translate(263,705)" d="m0 0h2v2h-3l2 6-17 8-4-1 14-6h2l-1-3 1-1-2-2z" fill="#1C2A9A"/>
<path transform="translate(526,470)" d="m0 0 5 2-4 7-5 1 1-7z" fill="#FEFEFD"/>
<path transform="translate(877,312)" d="m0 0 4 1-4 6-6 7-2-3 2-4 4-1-1-3z" fill="#0F1E9E"/>
<path transform="translate(534,285)" d="m0 0 3 3 2 13h2l3 15h-2l-6-19z" fill="#25319A"/>
<path transform="translate(439,378)" d="m0 0 5 1 3 4v3h-2v-3l-2 1-12-1v-1l7-2z" fill="#FEFEF9"/>
<path transform="translate(454,158)" d="m0 0 9 3 1 4-8-1-8-3 4-2z" fill="#0B19A8"/>
<path transform="translate(422,437)" d="m0 0h2l-1 5v3l-6 4h-3l1-5 5-5z" fill="#F62918"/>
<path transform="translate(804,393)" d="m0 0 2 1-5 5-11 10-5 4h-2v-2l11-9z" fill="#FEFEFA"/>
<path transform="translate(400,41)" d="m0 0 1 4-4 12h-2l-1-6 3-8z" fill="#111F9D"/>
<path transform="translate(265,705)" d="m0 0h5l3 2v2l-7 3h-6l3-1-1-4h3z" fill="#0914BA"/>
<path transform="translate(764,368)" d="m0 0h7l-2 1 3 5-7 3h-3z" fill="#16249D"/>
<path transform="translate(504,122)" d="m0 0 6 2 8 3-4 3-6-2-8-4z" fill="#1925A3"/>
<path transform="translate(697,868)" d="m0 0h6l1 6-1 1h-6l-1-6z" fill="#1824A9"/>
<path transform="translate(578,713)" d="m0 0 5 1 4 5-2 4-2-4h-5l-1-4z" fill="#0812BC"/>
<path transform="translate(267,480)" d="m0 0 2 4 4 2v8l-1-2h-3l-1 2z" fill="#FEFEF8"/>
<path transform="translate(210,448)" d="m0 0 4 1 5 5 2 3-5 1-1-3-4-1z" fill="#0A15B9"/>
<path transform="translate(115,378)" d="m0 0 5 1 2 2v3l3 1-2 2-5-1-3-5z" fill="#0814B7"/>
<path transform="translate(410,150)" d="m0 0 1 2h19v1l-15 1v3l-5 2-2 1z" fill="#2A3696"/>
<path transform="translate(402,862)" d="m0 0 3 1 1 12-5-1v-7z" fill="#040EC3"/>
<path transform="translate(590,722)" d="m0 0 5 2 9 7-2 1v2l-3-1v-2l-4-1z" fill="#030DC4"/>
<path transform="translate(234,555)" d="m0 0h6l-1 4-6 5h-5l4-2 2-4-4-2z" fill="#1925A8"/>
<path transform="translate(420,431)" d="m0 0 2 1-10 17h-3l3-7 7-9z" fill="#FEFEFD"/>
<path transform="translate(360,855)" d="m0 0 1 3 2 1-1 4-7-2-1-5 6 1z" fill="#FEFEFE"/>
<path transform="translate(281,856)" d="m0 0h6l2 4-1 1-9 1 1-5z" fill="#FEFEFA"/>
<path transform="translate(549,698)" d="m0 0 6 1 1 3 3 1 1-2 2 2 1 3 4 4h-3l-11-8z" fill="#17259C"/>
<path transform="translate(86,357)" d="m0 0 5 1 4 3v5h-3l-1-3-4-1z" fill="#0913BC"/>
<path transform="translate(419,24)" d="m0 0 4 1-10 6-8 8v-3l7-8z" fill="#FEFEF9"/>
<path transform="translate(711,868)" d="m0 0h5l1 1v5l-1 1h-5l-1-5z" fill="#121FA7"/>
<path transform="translate(686,867)" d="m0 0 3 1 1 6-5 1-2-2v-5z" fill="#1320A5"/>
<path transform="translate(335,863)" d="m0 0h2l1 12-2 1-3-1 1-11z" fill="#040FC1"/>
<path transform="translate(651,431)" d="m0 0 1 2 3-1h4l-2 5-1 2h-2v-2l-3 1h-3l2-5z" fill="#202D9B"/>
<path transform="translate(509,207)" d="m0 0 4 4 2 10 2 5v4h-2l-6-20z" fill="#253299"/>
<path transform="translate(599,98)" d="m0 0 2 2v14l-2 5h-1z" fill="#FEFEF8"/>
<path transform="translate(191,784)" d="m0 0 3 4 4 2-8 5-2-1z" fill="#D71E29"/>
<path transform="translate(635,586)" d="m0 0 2 2 2 8 3 11v2h-2l-5-17z" fill="#25319A"/>
<path transform="translate(412,146)" d="m0 0h2v3h12l3 2-18 1z" fill="#FEFEF8"/>
<path transform="translate(525,142)" d="m0 0 2 3-1 13h-2l-2-9z" fill="#202D9D"/>
<path transform="translate(483,106)" d="m0 0 7 6 7 5-2 1-9-6-7 1 4-1-2-4h2z" fill="#1D2B9A"/>
<path transform="translate(557,862)" d="m0 0 3 1 1 12h-4z" fill="#040FC2"/>
<path transform="translate(621,750)" d="m0 0 5 1 3 3 4 1 6 8-4-2-9-6z" fill="#14229C"/>
<path transform="translate(551,557)" d="m0 0 3 1-1 2-7 2-1 3-6 1-1-2z" fill="#101E9D"/>
<path transform="translate(555,434)" d="m0 0 2 4-4 3-3 6h-2l1-6 3-5z" fill="#0F1DA0"/>
<path transform="translate(778,415)" d="m0 0h2v2l-14 11-5 3 1-3 10-8z" fill="#FEFEFA"/>
<path transform="translate(388,859)" d="m0 0h1l2 15h-4l-1-9z" fill="#030DC2"/>
<path transform="translate(568,841)" d="m0 0 6 1-1 5-4 1-2-3z" fill="#131DB1"/>
<path transform="translate(385,654)" d="m0 0h3v3h-2v2l-7 4v-5h2l1-3z" fill="#C81A2C"/>
<path transform="translate(575,543)" d="m0 0 3 1-4 1-1 4-4 1-4 3-3-1 4-4z" fill="#11209D"/>
<path transform="translate(192,533)" d="m0 0 3 1-4 6h-2v2l-3 1-2-2 6-7z" fill="#212E9C"/>
<path transform="translate(410,436)" d="m0 0 1 2-6 12-4 7h-2l2-6z" fill="#FEFEFE"/>
<path transform="translate(485,111)" d="m0 0 7 4 5 4-7-1-3-2h-3l-1-2z" fill="#030DC3"/>
<path transform="translate(617,852)" d="m0 0h6l-1 4-4 3h-2v-2l-2-1z" fill="#0A14BC"/>
<path transform="translate(426,841)" d="m0 0h5l1 5-1 1h-5l-1-5z" fill="#0F1AB2"/>
<path transform="translate(674,718)" d="m0 0 3 1 3 11 1 2v7l-2-3-5-16z" fill="#273498"/>
<path transform="translate(332,628)" d="m0 0 4 3v2l5 1v2l11 1v1h-8l-8-3-4-4z" fill="#253299"/>
<path transform="translate(547,445)" d="m0 0 1 2-3 6-6 11-3 1 2-5z" fill="#25329A"/>
<path transform="translate(407,451)" d="m0 0 1 2-6 12-3-3 4-7h2z" fill="#FEFEF8"/>
<path transform="translate(456,105)" d="m0 0 11 3 7 2v2l-5 1-4-2-2-2-7-3z" fill="#273498"/>
<path transform="translate(414,66)" d="m0 0 4 4 4 8-1 2-3-5v-2h-2v6h-1z" fill="#273398"/>
<path transform="translate(497,852)" d="m0 0 3 1v3l-6 1v12h-2l-1-4 1-9 4-2z" fill="#101F9D"/>
<path transform="translate(463,162)" d="m0 0 5 1v4 2l-5-1-4-3 4-2z" fill="#15249C"/>
<path transform="translate(661,677)" d="m0 0 3 1 3 10 1 2v7l-2-3z" fill="#283498"/>
<path transform="translate(625,555)" d="m0 0 3 3 2 9v3h-2l-3-9z" fill="#24319A"/>
<path transform="translate(551,127)" d="m0 0 3 1-5 5-5 3 2-5-2-2z" fill="#243099"/>
<path transform="translate(492,590)" d="m0 0 2 1-4 5-9 1 5-4z" fill="#111F9F"/>
<path transform="translate(581,68)" d="m0 0 4 2 7 6 4 7-1 2-9-12z" fill="#FEFEF9"/>
<path transform="translate(379,59)" d="m0 0 2 3v5l-2 5-1 6h-1v-12z" fill="#212E9B"/>
<path transform="translate(218,453)" d="m0 0 5 2 2 3-1 2-6 1-2-1 1-3 3-1z" fill="#13219E"/>
<path transform="translate(195,436)" d="m0 0 4 2 11 8 1 2-4-2-5-2-4-2-2-4z" fill="#1E2B9C"/>
<path transform="translate(602,391)" d="m0 0 9 2-2 5h-3l-2-4-2-1z" fill="#FEFEF9"/>
<path transform="translate(646,385)" d="m0 0h2l-2 4-7 11-1-4 2-4h2v-3h2v-2h2z" fill="#2B3796"/>
<path transform="translate(754,356)" d="m0 0 4 2v7l-2 4-1-5v-3-2l-4 2 2-4z" fill="#233099"/>
<path transform="translate(755,353)" d="m0 0h6l2 1-1 2-1 3-3 4v-8h-5z" fill="#FEFEF8"/>
<path transform="translate(862,315)" d="m0 0m-3 1 3 1-2 2-20 1 2-2 13-1z" fill="#283497"/>
<path transform="translate(696,788)" d="m0 0 2 2 2 5v4l-6-1-2-3h4z" fill="#293597"/>
<path transform="translate(219,603)" d="m0 0 2 1-4 6-1 1h-5l1-3z" fill="#09199F"/>
<path transform="translate(408,514)" d="m0 0 2 4h2l1 5-5-1-1-1z" fill="#FEFEF9"/>
<path transform="translate(764,353)" d="m0 0 2 1 1 4v11l-3-1z" fill="#C81A2B"/>
<path transform="translate(717,344)" d="m0 0 3 1-2 5-3 2h-3l1-5 4 1-1-3z" fill="#202D9E"/>
<path transform="translate(542,864)" d="m0 0h2l1 10-4 1z" fill="#040EC3"/>
<path transform="translate(731,336)" d="m0 0h6l5 6-1 7h-1l-4-12h-5z" fill="#FEFEF9"/>
<path transform="translate(430,15)" d="m0 0 10 1-4 2h-12l-2-2z" fill="#FEFEF9"/>
<path transform="translate(246,854)" d="m0 0 4 4v7l-2-3-4-1v-2h2z" fill="#0C1BA3"/>
<path transform="translate(494,658)" d="m0 0 5 1v2l4 1 2 1v2l3 1-3 1-11-8z" fill="#14229C"/>
<path transform="translate(655,366)" d="m0 0h11v1h-5l-1 4-6-2-1-2z" fill="#2B3796"/>
<path transform="translate(387,51)" d="m0 0h2l-2 6-4 5h-2v-3h2l1-5 3-1z" fill="#1F2C9E"/>
<path transform="translate(338,852)" d="m0 0 2 1-1 2 2 1h-2l-1 16h-1l-1-12z" fill="#17259C"/>
<path transform="translate(297,691)" d="m0 0 5 1 3-1-1 3-5 2-5-1-1-2z" fill="#030FBB"/>
<path transform="translate(232,589)" d="m0 0 2 1-2 5-6 4-1-2h2l1-4z" fill="#0A199F"/>
<path transform="translate(200,565)" d="m0 0 4 3 4 2-9 2-1-3z" fill="#25319A"/>
<path transform="translate(164,416)" d="m0 0 5 1 2 2v4l-4-1-4-5z" fill="#030DC3"/>
<path transform="translate(684,411)" d="m0 0 1 4 3 1v6h-3l-1-2z" fill="#1F2C9C"/>
<path transform="translate(417,135)" d="m0 0h5v2h2l3 4-7-1-3-2z" fill="#0A1AA0"/>
<path transform="translate(469,17)" d="m0 0h12l-1 3h-7l-5-1z" fill="#0816AD"/>
<path transform="translate(350,865)" d="m0 0 2 4v6h-4l1-9z" fill="#040EC3"/>
<path transform="translate(488,844)" d="m0 0 1 2-2 5-2 1-2-1 1-5z" fill="#FEFEF8"/>
<path transform="translate(641,765)" d="m0 0 8 2 5 6h-3l-10-7z" fill="#17259B"/>
<path transform="translate(551,453)" d="m0 0 1 4-5 7h-2l1-4 1-2h2l1-4z" fill="#0F1E9D"/>
<path transform="translate(429,416)" d="m0 0h2l-2 5-5 8-1-4z" fill="#FEFEFD"/>
<path transform="translate(851,335)" d="m0 0 3 1-5 5h-3l-1-3z" fill="#FEFEFB"/>
<path transform="translate(530,276)" d="m0 0h3l2 11 1 7-2-3-4-13z" fill="#293597"/>
<path transform="translate(567,711)" d="m0 0 11 3v5l-4-2-7-5z" fill="#15239C"/>
<path transform="translate(359,625)" d="m0 0h6l1 4-5 2z" fill="#0F1E9E"/>
<path transform="translate(398,487)" d="m0 0h2l-1 7-5 2 2-6z" fill="#24309A"/>
<path transform="translate(372,863)" d="m0 0 2 2-3 3-5-1v-3z" fill="#FEFEFC"/>
<path transform="translate(279,863)" d="m0 0h4l1 6h-4l-1-1z" fill="#FEFEFD"/>
<path transform="translate(643,860)" d="m0 0 1 3-3 3-4-2v-3z" fill="#17259C"/>
<path transform="translate(202,787)" d="m0 0m-1 1m-1 1m-1 1v3l-1 3-4 1-2-2h2v-2z" fill="#030DC5"/>
<path transform="translate(141,754)" d="m0 0 3 1-2 4-5 1-1-3z" fill="#030DC3"/>
<path transform="translate(715,463)" d="m0 0h2v2l-12 8v-3z" fill="#FEFEFA"/>
<path transform="translate(609,865)" d="m0 0 3 1 1 4-4 5z" fill="#FEFEF8"/>
<path transform="translate(456,467)" d="m0 0h2v7l1 2-3 1-1-1v-7z" fill="#FEFEF9"/>
<path transform="translate(192,435)" d="m0 0 5 3 2 4-4 1-1-3-2-1z" fill="#030DC0"/>
<path transform="translate(436,154)" d="m0 0h6v3 3l-9-4z" fill="#09189F"/>
<path transform="translate(515,128)" d="m0 0 6 1v4l-6-1z" fill="#0914BC"/>
<path transform="translate(466,85)" d="m0 0 5 5 2 5-3 1-4-9z" fill="#233099"/>
</svg>
