<?xml version="1.0" encoding="UTF-8"?>
<svg version="1.1" viewBox="0 0 928 868" width="232" height="217" xmlns="http://www.w3.org/2000/svg">
<path transform="translate(0)" d="m0 0h928v868h-928z" fill="#FEFEFD"/>
<path transform="translate(473,179)" d="m0 0h19l20 3 21 7 16 9 10 8 6 5 8 10 9 15 4 9 7 8 8 8 13 17 9 16 5 11 5 16 4 23v24l-5 25-6 16-9 16-9 10-8 7-12 6-17 5-16 3-10 1-9 13-1 2 13-2 23-3 13-3 3 1-8 7-16 12-21 12-22 9-35 9-20 9-16 5-20 4h-21l-17-3-14-5-13-7-10-8-8-8-12-18v-4h2l5 7 12 9 13 5 11 2h20l-4-3-24-11-16-10-14-11-12-11-8-9-7-10-8-14-5-12-4-13-3-17v-22l3-16 6-15 5-6 1 4-3 8v10l5 15 9 15 11 13 14 14 11 9 13 10 19 12 19 10 28 11 15 5 6 1 7-10 11-18 6-10 8-16 10-24 12-36 5-19 4-19 1-10-15-6-24-8-30-7-23-4-8-1-31-1-19 1-19 4-16 5-16 8-7 6-9 12-1-4 6-12 10-17 10-13 7-8h2l2-4h2l2-4 13-10 14-8 15-7 21-7 23-5 22-2h17l23 2 15 4v-3l-4-2-14-9-13-4h-29l-8 2h-6l4-4 13-6 18-5z" fill="#4095D5"/>
<path transform="translate(473,179)" d="m0 0h19l20 3 21 7 16 9 10 8 6 5 8 10 9 15 4 9 7 8 8 8 13 17 9 16 5 11 5 16 4 23v24l-5 25-6 16-9 16-9 10-8 7-12 6-17 5-16 3h-9l5-9 6-9 9-17 9-20 11-33 5-19v-6l-10-10-19-14-21-12-19-9-16-6-27-9-30-7-23-4-8-1-31-1-19 1-19 4-16 5-16 8-7 6-9 12-1-4 6-12 10-17 10-13 7-8h2l2-4h2l2-4 13-10 14-8 15-7 21-7 23-5 22-2h17l23 2 15 4v-3l-4-2-14-9-13-4h-29l-8 2h-6l4-4 13-6 18-5z" fill="#F31C41"/>
<path transform="translate(519,297)" d="m0 0 6 1 20 10 20 12 13 10 10 9 4 4-1 11-9 29-4 13-9 20-8 16-8 14-10 14-7 10-3 2h-17l-23-3-23-4-14-4v-5l6-9 9-14 7-12 8-16 10-24 12-36 5-19 4-19z" fill="#0B4EA5"/>
<path transform="translate(378,293)" d="m0 0h40l25 3 19 4 14 5v2l-17 1-20 4-27 8-19 7-25 12-14 8-12 9-11 10-9 13-5-5-9-15-5-15v-10l4-13 5-6 11-7 10-5 20-6z" fill="#FE9B2A"/>
<path transform="translate(375,625)" d="m0 0h14l16 3 8 4 8 9 4 11v11l-3 9-6 7-10 6-10 3-8 1h-15l-13-3-9-6-7-7-4-10v-13l4-10 7-7 12-6z" fill="#F32040"/>
<path transform="translate(592,345)" d="m0 0 5 4 10 15 5 9 4 14 2 14-1 9-3 9-8 15-2 4-4 4-12 6-17 5-16 3h-9l5-9 6-9 9-17 9-20 11-33z" fill="#FD9A2A"/>
<path transform="translate(540,626)" d="m0 0h8l6 3 8 8 11 14 7 10 7 14 4 11v2h-22l-2-7-1-5h-43l-4 11-1 1h-21l1-6 7-16 12-18 11-12 5-6z" fill="#F32140"/>
<path transform="translate(473,179)" d="m0 0h19l20 3 21 7 16 9 10 8 6 5 8 10 9 15 4 9 1 3-4-2-20-12-16-8-18-7-22-7-3-2v-2l-4-2-14-9-13-4h-29l-8 2h-6l4-4 13-6 18-5z" fill="#0D51A7"/>
<path transform="translate(304,608)" d="m0 0 46 1 1 2v12l-3 2h-30v18l-1 46-12-3-9-6-3-3-1-3-1-48-28-1-1-1v-15z" fill="#F32140"/>
<path transform="translate(334,479)" d="m0 0h2l5 7 12 9 13 5 11 2h28l24 6 26 3 18 1h10v3l-21 9-13 4-20 4h-21l-17-3-14-5-13-7-10-8-8-8-12-18z" fill="#0E52A7"/>
<path transform="translate(347,380)" d="m0 0 6 1 25 12 27 9 31 8 27 5 14 1 3 2-6 11-7 12-4 6-7-1-20-7-26-12-20-12-19-14-13-10-10-9z" fill="#FE9B2A"/>
<path transform="translate(430,626)" d="m0 0h70l2 1v13l-1 1-22 1-2 40-2 4-3 2h-11l-6-3-1-1-1-42-23-1-1-1v-13z" fill="#F32240"/>
<path transform="translate(604,626)" d="m0 0h11l3 1 1 3 2 32 3 7 4 2 33 1 5 1v14l-1 1h-38l-13-2-8-4-7-8-2-10v-32l2-5z" fill="#F32340"/>
<path transform="translate(375,641)" d="m0 0h15l7 3 5 5 1 2v12l-4 6-6 3-5 1h-14l-8-4-4-6-1-3v-7l3-6 5-4z" fill="#FEFEFD"/>
<path transform="translate(592,345)" d="m0 0 5 4 10 15 4 8-1 4-16 12-12 7-5 1 11-35z" fill="#FEFEFD"/>
<path transform="translate(542,646)" d="m0 0 5 1 9 11v2l-6 1h-15l-3-1 2-4 7-9z" fill="#FEFEFD"/>
</svg>
